<svg width="65" height="65" viewBox="0 0 65 65" fill="none" xmlns="http://www.w3.org/2000/svg">
<circle cx="32.5" cy="32.5" r="31.9" fill="white" stroke="#25314F" stroke-width="1.2"/>
<mask id="path-2-inside-1" fill="white">
<path d="M17.1436 32.4648C16.8219 32.4648 16.4495 32.4521 16.0264 32.4268C15.6032 32.3929 15.1758 32.3421 14.7441 32.2744C14.7611 32.4945 14.7738 32.7145 14.7822 32.9346C14.7907 33.1546 14.7949 33.3704 14.7949 33.582C14.7949 34.5384 14.7103 35.4102 14.541 36.1973C14.3717 36.9844 14.1178 37.6572 13.7793 38.2158C13.4408 38.7744 13.0176 39.2061 12.5098 39.5107C12.0104 39.8239 11.4307 39.9805 10.7705 39.9805C10.2712 39.9805 9.70833 39.8874 9.08203 39.7012C8.46419 39.515 7.77018 39.1807 7 38.6982L7.25391 38.292C7.91406 38.6982 8.53613 38.9987 9.12012 39.1934C9.71257 39.388 10.2627 39.4854 10.7705 39.4854C11.3206 39.4854 11.7734 39.3838 12.1289 39.1807C12.4844 38.986 12.7637 38.7236 12.9668 38.3936C13.1784 38.0719 13.3223 37.7038 13.3984 37.2891C13.4831 36.8743 13.5254 36.4512 13.5254 36.0195C13.5254 35.4186 13.4831 34.7754 13.3984 34.0898C13.3223 33.4043 13.2503 32.6807 13.1826 31.9189C12.7933 31.7835 12.4759 31.627 12.2305 31.4492C11.985 31.263 11.8623 31.0472 11.8623 30.8018C11.8623 30.5648 11.9723 30.3617 12.1924 30.1924C12.4209 30.0146 12.7171 29.8792 13.0811 29.7861C13.0811 29.0583 13.1361 28.3473 13.2461 27.6533C13.3561 26.9508 13.4915 26.2907 13.6523 25.6729C13.8216 25.055 13.9993 24.4837 14.1855 23.959C14.3802 23.4342 14.5622 22.9857 14.7314 22.6133C14.9007 22.2324 15.0404 21.9362 15.1504 21.7246C15.2689 21.513 15.3324 21.4072 15.3408 21.4072L15.7852 21.623C15.7852 21.6315 15.7174 21.8008 15.582 22.1309C15.4466 22.4525 15.2985 22.9095 15.1377 23.502C14.9769 24.0944 14.8288 24.8053 14.6934 25.6348C14.5579 26.4642 14.4902 27.3867 14.4902 28.4023C14.4902 28.597 14.4902 28.8044 14.4902 29.0244C14.4902 29.236 14.4987 29.4476 14.5156 29.6592C15.4551 29.7015 16.2507 29.9131 16.9023 30.2939C17.5625 30.6748 18.1338 31.1995 18.6162 31.8682C19.3441 31.7158 20.0423 31.4577 20.7109 31.0938C21.388 30.7214 21.9805 30.2516 22.4883 29.6846C23.0046 29.1175 23.415 28.4574 23.7197 27.7041C24.0329 26.9508 24.1895 26.1172 24.1895 25.2031C24.1895 24.4753 24.0794 23.8278 23.8594 23.2607C23.6478 22.6852 23.36 22.1859 22.9961 21.7627C22.6406 21.3311 22.2259 20.9671 21.752 20.6709C21.2865 20.3747 20.804 20.1377 20.3047 19.96C19.8053 19.7738 19.306 19.6426 18.8066 19.5664C18.3158 19.4818 17.863 19.4395 17.4482 19.4395C16.2803 19.4395 15.2266 19.5283 14.2871 19.7061C13.3561 19.8838 12.5309 20.1081 11.8115 20.3789C11.0921 20.6497 10.4701 20.9417 9.94531 21.2549C9.42904 21.568 9.00163 21.86 8.66309 22.1309C8.32454 22.4017 8.07487 22.6302 7.91406 22.8164C7.75326 23.0026 7.67285 23.0957 7.67285 23.0957L7.25391 22.8164C7.2793 22.791 7.38086 22.6768 7.55859 22.4736C7.73633 22.2705 7.9987 22.0293 8.3457 21.75C8.70117 21.4622 9.14551 21.1533 9.67871 20.8232C10.2204 20.4932 10.8636 20.1927 11.6084 19.9219C12.3617 19.6426 13.2207 19.4098 14.1855 19.2236C15.1504 19.0374 16.238 18.9443 17.4482 18.9443C18.1423 18.9443 18.832 18.9993 19.5176 19.1094C20.2031 19.2109 20.8548 19.3717 21.4727 19.5918C22.0905 19.8034 22.6618 20.0785 23.1865 20.417C23.7197 20.7555 24.1768 21.1576 24.5576 21.623C24.9469 22.0801 25.2516 22.609 25.4717 23.21C25.6917 23.8024 25.8018 24.4668 25.8018 25.2031C25.8018 26.2611 25.6071 27.2005 25.2178 28.0215C24.8369 28.834 24.3249 29.5365 23.6816 30.1289C23.0469 30.7129 22.3148 31.1911 21.4854 31.5635C20.6644 31.9274 19.8138 32.1855 18.9336 32.3379C19.2298 32.7949 19.488 33.3027 19.708 33.8613C19.9704 34.4876 20.2074 35.1393 20.4189 35.8164C20.639 36.485 20.8675 37.141 21.1045 37.7842C21.3415 38.4274 21.5996 39.0368 21.8789 39.6123C22.1667 40.1878 22.501 40.6914 22.8818 41.123C23.2712 41.5632 23.724 41.9102 24.2402 42.1641C24.765 42.418 25.387 42.5449 26.1064 42.5449C26.6143 42.5449 27.1305 42.4307 27.6553 42.2021C28.1885 41.9821 28.7301 41.6224 29.2803 41.123L29.5977 41.4785C29.2845 41.7832 28.9629 42.071 28.6328 42.3418C28.3027 42.6211 27.9557 42.8623 27.5918 43.0654C27.2363 43.277 26.8597 43.4421 26.4619 43.5605C26.0641 43.6875 25.6367 43.751 25.1797 43.751C24.4941 43.751 23.8975 43.6536 23.3896 43.459C22.8903 43.2728 22.4544 43.0062 22.082 42.6592C21.7096 42.3206 21.3965 41.9186 21.1426 41.4531C20.8887 40.9876 20.6686 40.4798 20.4824 39.9297C20.2962 39.388 20.1312 38.8083 19.9873 38.1904C19.8519 37.5811 19.7165 36.9632 19.5811 36.3369C19.4118 35.5667 19.2214 34.8516 19.0098 34.1914C18.8066 33.5312 18.5485 32.9388 18.2354 32.4141C18.0492 32.4395 17.863 32.4564 17.6768 32.4648C17.499 32.4648 17.3213 32.4648 17.1436 32.4648ZM14.5664 30.1543C14.5833 30.4251 14.6045 30.7044 14.6299 30.9922C14.6637 31.2715 14.6934 31.5465 14.7188 31.8174C15.0404 31.8851 15.4085 31.9316 15.8232 31.957C16.238 31.9824 16.695 31.9951 17.1943 31.9951C17.3128 31.9951 17.4355 31.9951 17.5625 31.9951C17.6895 31.9951 17.8164 31.9867 17.9434 31.9697C17.554 31.4365 17.0885 31.0133 16.5469 30.7002C16.0137 30.3786 15.3535 30.1966 14.5664 30.1543ZM13.1318 31.373C13.1149 31.2038 13.1022 31.0303 13.0938 30.8525C13.0853 30.6663 13.0811 30.4844 13.0811 30.3066C12.861 30.3574 12.6833 30.4251 12.5479 30.5098C12.4209 30.5944 12.3574 30.6833 12.3574 30.7764C12.3574 30.8441 12.4167 30.9329 12.5352 31.043C12.6621 31.1445 12.861 31.2546 13.1318 31.373Z"/>
</mask>
<path class="logo-animation" d="M17.1436 32.4648C16.8219 32.4648 16.4495 32.4521 16.0264 32.4268C15.6032 32.3929 15.1758 32.3421 14.7441 32.2744C14.7611 32.4945 14.7738 32.7145 14.7822 32.9346C14.7907 33.1546 14.7949 33.3704 14.7949 33.582C14.7949 34.5384 14.7103 35.4102 14.541 36.1973C14.3717 36.9844 14.1178 37.6572 13.7793 38.2158C13.4408 38.7744 13.0176 39.2061 12.5098 39.5107C12.0104 39.8239 11.4307 39.9805 10.7705 39.9805C10.2712 39.9805 9.70833 39.8874 9.08203 39.7012C8.46419 39.515 7.77018 39.1807 7 38.6982L7.25391 38.292C7.91406 38.6982 8.53613 38.9987 9.12012 39.1934C9.71257 39.388 10.2627 39.4854 10.7705 39.4854C11.3206 39.4854 11.7734 39.3838 12.1289 39.1807C12.4844 38.986 12.7637 38.7236 12.9668 38.3936C13.1784 38.0719 13.3223 37.7038 13.3984 37.2891C13.4831 36.8743 13.5254 36.4512 13.5254 36.0195C13.5254 35.4186 13.4831 34.7754 13.3984 34.0898C13.3223 33.4043 13.2503 32.6807 13.1826 31.9189C12.7933 31.7835 12.4759 31.627 12.2305 31.4492C11.985 31.263 11.8623 31.0472 11.8623 30.8018C11.8623 30.5648 11.9723 30.3617 12.1924 30.1924C12.4209 30.0146 12.7171 29.8792 13.0811 29.7861C13.0811 29.0583 13.1361 28.3473 13.2461 27.6533C13.3561 26.9508 13.4915 26.2907 13.6523 25.6729C13.8216 25.055 13.9993 24.4837 14.1855 23.959C14.3802 23.4342 14.5622 22.9857 14.7314 22.6133C14.9007 22.2324 15.0404 21.9362 15.1504 21.7246C15.2689 21.513 15.3324 21.4072 15.3408 21.4072L15.7852 21.623C15.7852 21.6315 15.7174 21.8008 15.582 22.1309C15.4466 22.4525 15.2985 22.9095 15.1377 23.502C14.9769 24.0944 14.8288 24.8053 14.6934 25.6348C14.5579 26.4642 14.4902 27.3867 14.4902 28.4023C14.4902 28.597 14.4902 28.8044 14.4902 29.0244C14.4902 29.236 14.4987 29.4476 14.5156 29.6592C15.4551 29.7015 16.2507 29.9131 16.9023 30.2939C17.5625 30.6748 18.1338 31.1995 18.6162 31.8682C19.3441 31.7158 20.0423 31.4577 20.7109 31.0938C21.388 30.7214 21.9805 30.2516 22.4883 29.6846C23.0046 29.1175 23.415 28.4574 23.7197 27.7041C24.0329 26.9508 24.1895 26.1172 24.1895 25.2031C24.1895 24.4753 24.0794 23.8278 23.8594 23.2607C23.6478 22.6852 23.36 22.1859 22.9961 21.7627C22.6406 21.3311 22.2259 20.9671 21.752 20.6709C21.2865 20.3747 20.804 20.1377 20.3047 19.96C19.8053 19.7738 19.306 19.6426 18.8066 19.5664C18.3158 19.4818 17.863 19.4395 17.4482 19.4395C16.2803 19.4395 15.2266 19.5283 14.2871 19.7061C13.3561 19.8838 12.5309 20.1081 11.8115 20.3789C11.0921 20.6497 10.4701 20.9417 9.94531 21.2549C9.42904 21.568 9.00163 21.86 8.66309 22.1309C8.32454 22.4017 8.07487 22.6302 7.91406 22.8164C7.75326 23.0026 7.67285 23.0957 7.67285 23.0957L7.25391 22.8164C7.2793 22.791 7.38086 22.6768 7.55859 22.4736C7.73633 22.2705 7.9987 22.0293 8.3457 21.75C8.70117 21.4622 9.14551 21.1533 9.67871 20.8232C10.2204 20.4932 10.8636 20.1927 11.6084 19.9219C12.3617 19.6426 13.2207 19.4098 14.1855 19.2236C15.1504 19.0374 16.238 18.9443 17.4482 18.9443C18.1423 18.9443 18.832 18.9993 19.5176 19.1094C20.2031 19.2109 20.8548 19.3717 21.4727 19.5918C22.0905 19.8034 22.6618 20.0785 23.1865 20.417C23.7197 20.7555 24.1768 21.1576 24.5576 21.623C24.9469 22.0801 25.2516 22.609 25.4717 23.21C25.6917 23.8024 25.8018 24.4668 25.8018 25.2031C25.8018 26.2611 25.6071 27.2005 25.2178 28.0215C24.8369 28.834 24.3249 29.5365 23.6816 30.1289C23.0469 30.7129 22.3148 31.1911 21.4854 31.5635C20.6644 31.9274 19.8138 32.1855 18.9336 32.3379C19.2298 32.7949 19.488 33.3027 19.708 33.8613C19.9704 34.4876 20.2074 35.1393 20.4189 35.8164C20.639 36.485 20.8675 37.141 21.1045 37.7842C21.3415 38.4274 21.5996 39.0368 21.8789 39.6123C22.1667 40.1878 22.501 40.6914 22.8818 41.123C23.2712 41.5632 23.724 41.9102 24.2402 42.1641C24.765 42.418 25.387 42.5449 26.1064 42.5449C26.6143 42.5449 27.1305 42.4307 27.6553 42.2021C28.1885 41.9821 28.7301 41.6224 29.2803 41.123L29.5977 41.4785C29.2845 41.7832 28.9629 42.071 28.6328 42.3418C28.3027 42.6211 27.9557 42.8623 27.5918 43.0654C27.2363 43.277 26.8597 43.4421 26.4619 43.5605C26.0641 43.6875 25.6367 43.751 25.1797 43.751C24.4941 43.751 23.8975 43.6536 23.3896 43.459C22.8903 43.2728 22.4544 43.0062 22.082 42.6592C21.7096 42.3206 21.3965 41.9186 21.1426 41.4531C20.8887 40.9876 20.6686 40.4798 20.4824 39.9297C20.2962 39.388 20.1312 38.8083 19.9873 38.1904C19.8519 37.5811 19.7165 36.9632 19.5811 36.3369C19.4118 35.5667 19.2214 34.8516 19.0098 34.1914C18.8066 33.5312 18.5485 32.9388 18.2354 32.4141C18.0492 32.4395 17.863 32.4564 17.6768 32.4648C17.499 32.4648 17.3213 32.4648 17.1436 32.4648ZM14.5664 30.1543C14.5833 30.4251 14.6045 30.7044 14.6299 30.9922C14.6637 31.2715 14.6934 31.5465 14.7188 31.8174C15.0404 31.8851 15.4085 31.9316 15.8232 31.957C16.238 31.9824 16.695 31.9951 17.1943 31.9951C17.3128 31.9951 17.4355 31.9951 17.5625 31.9951C17.6895 31.9951 17.8164 31.9867 17.9434 31.9697C17.554 31.4365 17.0885 31.0133 16.5469 30.7002C16.0137 30.3786 15.3535 30.1966 14.5664 30.1543ZM13.1318 31.373C13.1149 31.2038 13.1022 31.0303 13.0938 30.8525C13.0853 30.6663 13.0811 30.4844 13.0811 30.3066C12.861 30.3574 12.6833 30.4251 12.5479 30.5098C12.4209 30.5944 12.3574 30.6833 12.3574 30.7764C12.3574 30.8441 12.4167 30.9329 12.5352 31.043C12.6621 31.1445 12.861 31.2546 13.1318 31.373Z" stroke="#25314F" stroke-width="2" mask="url(#path-2-inside-1)"/>
<path class="logo-animation" d="M52.0891 22.6589C52.0891 22.6589 52.0892 22.6588 52.0892 22.6588L52.2174 22.7902M52.0891 22.6589L52.2174 22.7902M52.0891 22.6589C52.0171 22.7292 51.9469 22.801 51.8785 22.8745C51.8776 22.8755 51.8766 22.8764 51.8757 22.8774C51.5998 23.1739 51.3528 23.496 51.1348 23.8434C51.3847 23.5361 51.664 23.2528 51.973 22.9932L51.973 22.9932L51.9774 22.9894C52.0567 22.9213 52.1367 22.8549 52.2174 22.7902M52.0891 22.6589L52.4385 23.0166M52.2174 22.7902C52.2174 22.7902 52.2174 22.7902 52.2174 22.7902M52.2174 22.7902L52.4385 23.0166M52.2174 22.7902C52.5449 22.528 52.8844 22.2949 53.2358 22.0904L53.4457 21.9683M52.2174 22.7902L52.4385 23.0166M52.4385 23.0166L54.4519 22.1767C54.7299 22.4856 54.9667 22.8375 55.1624 23.2324C55.1659 23.2396 55.1694 23.2469 55.1729 23.2541M53.4457 21.9683L53.4509 21.9714L53.4824 21.9565L53.5852 22.0446L53.6131 22.0685L53.7254 22.1648C53.8512 22.2727 53.97 22.3886 54.0816 22.5127C54.3319 22.7862 54.5425 23.0995 54.7134 23.4524C54.7169 23.4594 54.7204 23.4665 54.7238 23.4735M53.4457 21.9683L53.4757 21.9508L53.1432 21.7864C53.1692 21.8013 53.195 21.8165 53.2206 21.832L53.4457 21.9683ZM54.7238 23.4735C54.7285 23.483 54.7331 23.4926 54.7377 23.5021C54.7393 23.5054 54.7409 23.5086 54.7425 23.5118C54.7433 23.5135 54.7441 23.5152 54.7449 23.5169C54.7462 23.5196 54.7475 23.5222 54.7488 23.5249C54.8276 23.6858 54.8949 23.8558 54.9503 24.0351C55.0785 24.4432 55.1426 24.8823 55.1426 25.3525C55.1426 25.361 55.1426 25.3695 55.1425 25.3779C55.1419 25.475 55.1381 25.574 55.131 25.6751C55.1153 26.0212 55.0719 26.347 55.0018 26.6532C55.0018 26.6532 55.0017 26.6533 55.0017 26.6533C54.9741 26.7739 54.9424 26.8915 54.9065 27.0061L54.9065 27.0061L54.9045 27.013C54.7994 27.3668 54.6648 27.6776 54.503 27.9485M54.7238 23.4735L55.1748 23.2581C55.1742 23.2568 55.1735 23.2555 55.1729 23.2541M54.7238 23.4735L55.1708 23.25C55.1715 23.2514 55.1722 23.2528 55.1729 23.2541M54.503 27.9485L54.4697 27.9297L54.5029 27.9487M54.503 27.9485L54.905 28.1757C54.9047 28.1762 54.9044 28.1767 54.9042 28.1772M54.503 27.9485C54.503 27.9486 54.5029 27.9487 54.5029 27.9487M54.5029 27.9487C54.4395 28.0549 54.3719 28.1549 54.3003 28.249C54.1544 28.4408 53.9947 28.6068 53.8213 28.7481C53.7604 28.8035 53.6972 28.8566 53.6318 28.9072C53.5634 28.9602 53.4926 29.0079 53.4194 29.0502C53.4182 29.0509 53.417 29.0516 53.4158 29.0523C53.1274 29.2179 52.8016 29.3008 52.4385 29.3008C52.4042 29.3008 52.3704 29.3 52.3369 29.2983C52.3209 29.2976 52.305 29.2966 52.2891 29.2955C52.0837 29.2916 51.8791 29.2628 51.6746 29.2082C51.6739 29.208 51.6732 29.2078 51.6726 29.2076C51.6063 29.1899 51.54 29.1694 51.4738 29.1462C51.2829 29.0794 51.1053 28.9879 50.9401 28.8706C50.8689 28.82 50.7999 28.7647 50.7332 28.7044M54.5029 27.9487L54.9033 28.1787C54.9036 28.1782 54.9039 28.1777 54.9042 28.1772M50.7332 28.7044C50.5831 28.5635 50.4486 28.3951 50.3311 28.1963C50.3278 28.1907 50.3245 28.1851 50.3212 28.1795C50.3116 28.1629 50.3021 28.1462 50.2927 28.1292C50.2976 28.1473 50.3027 28.1654 50.3079 28.1834L50.3106 28.1928L50.3137 28.2021C50.3892 28.4284 50.4891 28.6382 50.6152 28.8288M50.7332 28.7044C50.7342 28.7053 50.7351 28.7062 50.7361 28.7071L50.6181 28.8332M50.7332 28.7044C50.7323 28.7035 50.7313 28.7027 50.7303 28.7018L50.6152 28.8288M50.6152 28.8288L50.3945 29.0723L50.6181 28.8332M50.6152 28.8288C50.6162 28.8303 50.6172 28.8318 50.6181 28.8332M50.6181 28.8332C50.6612 28.898 50.7073 28.9605 50.7566 29.0207C50.9219 29.2228 51.1181 29.3901 51.3423 29.5217C51.3867 29.5478 51.4321 29.5724 51.4785 29.5957L51.4855 29.5991L51.4926 29.6024C51.7351 29.7143 51.9947 29.7768 52.2666 29.7951C52.29 29.7956 52.3134 29.7959 52.3369 29.7959C52.371 29.7959 52.4048 29.7953 52.4385 29.7942C52.8733 29.7795 53.2753 29.6701 53.6445 29.4658C53.7428 29.4126 53.8378 29.3545 53.9295 29.2914C54.0044 29.2399 54.0771 29.1851 54.1477 29.1271C54.3442 28.9499 54.5203 28.7522 54.676 28.5349C54.7577 28.421 54.8337 28.3017 54.9042 28.1772M54.9042 28.1772C55.0913 27.8512 55.2422 27.5076 55.3569 27.1473C55.3569 27.1472 55.357 27.147 55.357 27.1469C55.3969 27.0215 55.4325 26.894 55.4637 26.7645L55.4641 26.7625C55.5509 26.3955 55.607 26.0424 55.6303 25.7039C55.6352 25.5967 55.6377 25.4881 55.6377 25.3779C55.6377 25.3695 55.6377 25.361 55.6376 25.3525C55.6345 24.5805 55.4881 23.8985 55.1986 23.3065C55.1968 23.3029 55.1951 23.2994 55.1934 23.2959C55.1914 23.2918 55.1895 23.2878 55.1875 23.2837C55.1827 23.2738 55.1778 23.264 55.1729 23.2541M45.4867 23.9976C45.5871 23.893 45.6884 23.7916 45.7908 23.6932C45.2977 24.26 44.8576 24.9091 44.469 25.6378L44.469 25.6377L44.467 25.6416C44.049 26.442 43.7185 27.3299 43.4732 28.3025C43.2247 29.2875 43.1025 30.3575 43.1025 31.5098C43.1025 32.6931 43.2749 33.8204 43.6221 34.8889C43.9702 35.96 44.4817 36.9092 45.1591 37.7311C45.8408 38.5582 46.677 39.2118 47.6622 39.6909L47.6638 39.6917C48.1568 39.9292 48.6808 40.1071 49.2345 40.227C48.512 40.1395 47.834 39.9613 47.1986 39.6943L47.1953 39.6929C46.2516 39.3044 45.4388 38.7515 44.752 38.0334C44.0742 37.3159 43.5368 36.4476 43.1436 35.4211C42.7615 34.3932 42.5664 33.2396 42.5664 31.9541C42.5664 30.7797 42.6937 29.7094 42.9441 28.7403L42.9443 28.7393C43.1974 27.7514 43.5425 26.8647 43.977 26.0763C44.4149 25.2816 44.9186 24.5898 45.4867 23.9976ZM49.7471 28.1582L50.2061 27.96C50.2052 27.9579 50.2043 27.9558 50.2034 27.9537C50.2024 27.9516 50.2014 27.9495 50.2004 27.9473L49.7471 28.1582ZM50.9379 24.0987C50.9381 24.0985 50.9382 24.0982 50.9384 24.098C50.9386 24.0978 50.9387 24.0975 50.9389 24.0973L50.5342 23.8037L50.9379 24.0987ZM51.0856 23.923C51.0852 23.9236 51.0848 23.9242 51.0845 23.9249L51.5117 24.1846L51.0868 23.9211C51.0864 23.9217 51.086 23.9224 51.0856 23.923Z" stroke="#25314F"/>
<path class="logo-animation" d="M35.6836 30.9355C35.7564 30.8055 35.8431 30.6963 35.9436 30.6078M35.6836 30.9355C35.6824 30.9377 35.6812 30.9399 35.6801 30.9422L35.7761 30.9874L35.6836 30.9355ZM35.6836 30.9355L35.8 30.9986L35.9648 31.0762M35.9436 30.6078L34.9189 35.251C34.9436 35.2333 34.968 35.2155 34.9924 35.1975C35.3388 34.9425 35.6571 34.6644 35.9473 34.3633C35.985 34.3242 36.022 34.285 36.0584 34.2458C36.3219 33.962 36.5515 33.676 36.7471 33.3877C36.7855 33.33 36.8224 33.2727 36.8577 33.2157C37.0268 32.9428 37.1599 32.6778 37.2568 32.4209M35.9436 30.6078L36.1406 30.8213L35.9443 30.6071L35.9436 30.6078ZM35.9648 31.0762L35.8443 31.0226L35.9605 31.0856C35.9619 31.0824 35.9634 31.0793 35.9648 31.0762ZM35.9648 31.0762C36.0117 30.9707 36.0703 30.8857 36.1406 30.8213C36.1481 30.8144 36.1556 30.8077 36.1632 30.8012C36.1636 30.8008 36.1641 30.8005 36.1645 30.8001C36.2344 30.7403 36.3114 30.6946 36.3955 30.6631C36.4213 30.6534 36.4468 30.6451 36.4721 30.6381C36.539 30.6196 36.6042 30.6104 36.668 30.6104C36.7038 30.6104 36.739 30.6124 36.7734 30.6164C36.8404 30.6243 36.9049 30.6399 36.9668 30.6631C37.0605 30.6982 37.1426 30.7539 37.2129 30.8301C37.2404 30.8598 37.2656 30.8932 37.2886 30.9301C37.2897 30.9319 37.2908 30.9337 37.292 30.9356C37.3264 30.9919 37.3557 31.0563 37.3799 31.1289C37.3914 31.1634 37.4012 31.2001 37.4095 31.2392C37.4301 31.321 37.4424 31.4204 37.4424 31.542C37.4424 31.5563 37.4421 31.5709 37.4414 31.5859C37.4414 31.5861 37.4414 31.5863 37.4414 31.5865C37.4413 31.7859 37.4009 32.0065 37.32 32.2483C37.3193 32.2505 37.3185 32.2527 37.3178 32.2549C37.2995 32.3092 37.2792 32.3645 37.2568 32.4209M37.2568 32.4209L37.6744 32.5785L35.616 35.1416C35.8218 34.9719 36.0175 34.7947 36.2032 34.6099C36.2414 34.572 36.2791 34.5337 36.3164 34.4951C36.6028 34.1989 36.8538 33.9027 37.0694 33.6064C37.07 33.6056 37.0707 33.6047 37.0713 33.6038C37.1109 33.5494 37.1493 33.4949 37.1865 33.4404C37.3869 33.1472 37.5485 32.8621 37.6715 32.5852L37.2568 32.4209ZM31.5157 36.8837C31.396 36.881 31.2765 36.8728 31.1572 36.8593C30.9317 36.8336 30.7071 36.7887 30.4837 36.7249C30.2203 36.6496 29.9725 36.5447 29.7417 36.41L29.6455 36.6572M31.5157 36.8837L29.5488 31.9551C29.3203 32.2129 29.1445 32.5029 29.0215 32.8252C28.8984 33.1475 28.8369 33.5137 28.8369 33.9238C28.8369 34.3574 28.9189 34.7295 29.083 35.04C29.2529 35.3447 29.4697 35.5996 29.7334 35.8047C29.9971 36.0039 30.293 36.1504 30.6211 36.2441C30.9162 36.3285 31.2113 36.3749 31.5064 36.3833C31.3912 36.3908 31.2748 36.3945 31.1572 36.3945C30.9529 36.3945 30.763 36.3841 30.5868 36.3641C30.296 36.3311 30.0426 36.2718 29.8239 36.1901C29.7225 36.1506 29.6273 36.1083 29.5379 36.0635C29.5365 36.0628 29.5351 36.0621 29.5337 36.0614C29.2993 35.9433 29.1054 35.8073 28.9473 35.6563C28.8402 35.5513 28.7479 35.4409 28.6697 35.3249M31.5157 36.8837C31.3972 36.8909 31.2777 36.8945 31.1572 36.8945C30.5713 36.8945 30.0674 36.8154 29.6455 36.6572M31.5157 36.8837L28.5996 36.0156M29.6455 36.6572L29.7388 36.4083C29.633 36.3464 29.5306 36.2782 29.432 36.2036L29.4264 36.1994L29.4264 36.1994C29.2354 36.0508 29.0656 35.8811 28.9168 35.6914L28.5996 36.0156M29.6455 36.6572C29.2236 36.4932 28.875 36.2793 28.5996 36.0156M28.5996 36.0156L28.9138 35.6875C28.8248 35.5737 28.7435 35.4527 28.6697 35.3249M28.6697 35.3249C28.5873 35.2025 28.5205 35.074 28.4684 34.9391C28.3609 34.6605 28.3086 34.3816 28.3086 34.0996C28.3086 33.9162 28.3227 33.7454 28.3499 33.5864C28.3412 33.6968 28.3369 33.8093 28.3369 33.9238C28.3369 34.42 28.4309 34.8761 28.6409 35.2736L28.6408 35.2737L28.6463 35.2836C28.654 35.2974 28.6619 35.3112 28.6697 35.3249ZM35.5957 31.7002C35.5781 31.6064 35.5693 31.5186 35.5693 31.4365C35.5693 31.2489 35.6052 31.0861 35.6769 30.9482L35.8188 31.0113L35.9587 31.0896C35.9159 31.1865 35.8945 31.3022 35.8945 31.4365C35.8945 31.4929 35.902 31.5522 35.917 31.6145L35.5957 31.7002ZM35.5957 31.7002C35.6165 31.7783 35.6466 31.8564 35.686 31.9346C35.6886 31.9397 35.6912 31.9448 35.6938 31.95C35.6963 31.9546 35.6987 31.9592 35.7012 31.9639C35.7227 32.0041 35.7472 32.0432 35.7748 32.081L35.8807 31.8755L36.0933 31.9851L36.1078 31.9694C36.0567 31.9231 36.016 31.8707 35.9857 31.8121C35.9846 31.81 35.9835 31.8078 35.9824 31.8057C35.9573 31.7479 35.9376 31.6923 35.9232 31.6388L35.5957 31.7002ZM36.1758 32.3945L36.3252 32.1045C36.3199 32.1022 36.3146 32.0999 36.3094 32.0976L36.1758 32.3945ZM36.1758 32.3945L36.0467 32.328C36.0865 32.3516 36.1296 32.3737 36.1758 32.3945ZM36.1048 31.9909L36.1176 31.9781C36.1449 32.0017 36.175 32.0237 36.208 32.0441L36.1048 31.9909Z" stroke="#25314F"/>
</svg>
