<svg width="197" height="37" viewBox="0 0 197 37" fill="none" xmlns="http://www.w3.org/2000/svg">
<mask id="path-1-inside-1" fill="white">
<path d="M4.79102 9.10938C4.79102 9.91146 4.95573 10.6348 5.28516 11.2793C5.61458 11.9095 6.05859 12.4896 6.61719 13.0195C7.17578 13.5352 7.82747 14.015 8.57227 14.459C9.33138 14.8887 10.1335 15.3112 10.9785 15.7266C11.8236 16.1276 12.6901 16.5286 13.5781 16.9297C14.4805 17.3164 15.3542 17.7318 16.1992 18.1758C17.0443 18.6055 17.8392 19.0781 18.584 19.5938C19.3431 20.0951 20.002 20.6608 20.5605 21.291C21.1191 21.9069 21.5632 22.6016 21.8926 23.375C22.222 24.1341 22.3867 24.9935 22.3867 25.9531C22.3867 27.7005 22.0573 29.2188 21.3984 30.5078C20.7396 31.7826 19.8587 32.8353 18.7559 33.666C17.653 34.5111 16.3711 35.1341 14.9102 35.5352C13.4492 35.9505 11.9238 36.1582 10.334 36.1582C8.93034 36.1582 7.60547 35.972 6.35938 35.5996C5.11328 35.2415 4.01758 34.7331 3.07227 34.0742C2.12695 33.4297 1.375 32.6491 0.816406 31.7324C0.272135 30.8301 0 29.8418 0 28.7676C0 27.8223 0.143229 27.0202 0.429688 26.3613C0.730469 25.6882 1.05273 25.1367 1.39648 24.707C1.75456 24.2773 2.09115 23.9622 2.40625 23.7617C2.72135 23.5612 2.90039 23.4538 2.94336 23.4395L3.41602 24.4492C3.38737 24.4635 3.2513 24.5566 3.00781 24.7285C2.76432 24.8861 2.49935 25.1367 2.21289 25.4805C1.94076 25.8242 1.68294 26.2682 1.43945 26.8125C1.21029 27.3424 1.0957 27.9941 1.0957 28.7676C1.0957 29.541 1.23893 30.2357 1.52539 30.8516C1.82617 31.4531 2.22005 31.9831 2.70703 32.4414C3.20833 32.8997 3.77409 33.2936 4.4043 33.623C5.04883 33.9525 5.71484 34.2174 6.40234 34.418C7.08984 34.6328 7.77734 34.7832 8.46484 34.8691C9.15234 34.9694 9.78971 35.0195 10.377 35.0195C11.8952 35.0195 13.2702 34.8262 14.502 34.4395C15.7337 34.0671 16.7793 33.5443 17.6387 32.8711C18.5124 32.2122 19.1855 31.446 19.6582 30.5723C20.1309 29.6842 20.3672 28.7318 20.3672 27.7148C20.3672 26.569 20.1237 25.5807 19.6367 24.75C19.1497 23.9193 18.5052 23.1888 17.7031 22.5586C16.901 21.9141 15.9844 21.3411 14.9531 20.8398C13.9362 20.3242 12.8906 19.8229 11.8164 19.3359C10.7565 18.849 9.71094 18.3405 8.67969 17.8105C7.66276 17.2663 6.75326 16.6432 5.95117 15.9414C5.14909 15.2396 4.50456 14.4303 4.01758 13.5137C3.5306 12.5827 3.28711 11.4798 3.28711 10.2051C3.28711 8.78711 3.52344 7.49089 3.99609 6.31641C4.48307 5.14193 5.14193 4.13216 5.97266 3.28711C6.81771 2.42773 7.80599 1.76888 8.9375 1.31055C10.069 0.837891 11.2936 0.601562 12.6113 0.601562C13.9434 0.601562 15.1107 0.759115 16.1133 1.07422C17.1159 1.375 17.9538 1.80469 18.627 2.36328C19.3145 2.90755 19.8229 3.56641 20.1523 4.33984C20.4961 5.11328 20.668 5.96549 20.668 6.89648C20.668 7.6556 20.5749 8.40039 20.3887 9.13086C20.2168 9.84701 20.0234 10.4915 19.8086 11.0645C19.5938 11.6374 19.3932 12.1029 19.207 12.4609C19.0208 12.819 18.9206 13.0195 18.9062 13.0625L17.9395 12.5254C17.9395 12.5111 18.0182 12.3392 18.1758 12.0098C18.3477 11.6803 18.5339 11.2507 18.7344 10.7207C18.9349 10.1908 19.1139 9.59635 19.2715 8.9375C19.4434 8.26432 19.5293 7.58398 19.5293 6.89648C19.5293 6.12305 19.3861 5.42122 19.0996 4.79102C18.8275 4.14648 18.4049 3.60221 17.832 3.1582C17.2591 2.71419 16.5358 2.37044 15.6621 2.12695C14.7884 1.88346 13.7572 1.76172 12.5684 1.76172C11.4655 1.76172 10.4414 1.94792 9.49609 2.32031C8.55078 2.67839 7.72721 3.18685 7.02539 3.8457C6.33789 4.50456 5.79362 5.28516 5.39258 6.1875C4.99154 7.07552 4.79102 8.04948 4.79102 9.10938Z"/>
<path d="M42.9258 21.1191C42.3385 22.709 41.8014 24.041 41.3145 25.1152C40.8418 26.1895 40.3763 27.056 39.918 27.7148C39.474 28.3737 39.0299 28.8464 38.5859 29.1328C38.1419 29.4193 37.6549 29.5625 37.125 29.5625C36.4805 29.5625 35.929 29.3405 35.4707 28.8965C35.0124 28.4382 34.7259 27.7363 34.6113 26.791C34.153 27.7793 33.5586 28.5885 32.8281 29.2188C32.0977 29.8346 31.181 30.1426 30.0781 30.1426C29.4909 30.1426 28.9251 30.0352 28.3809 29.8203C27.8509 29.6055 27.3783 29.276 26.9629 28.832C26.5475 28.3737 26.2109 27.8008 25.9531 27.1133C25.7096 26.4258 25.5879 25.6165 25.5879 24.6855C25.5879 23.7402 25.7025 22.8522 25.9316 22.0215C26.1751 21.1908 26.4902 20.4316 26.877 19.7441C27.2637 19.0423 27.7077 18.4193 28.209 17.875C28.7246 17.3307 29.2546 16.8724 29.7988 16.5C30.3431 16.1276 30.8874 15.8411 31.4316 15.6406C31.9759 15.4401 32.4772 15.3398 32.9355 15.3398C33.3366 15.3398 33.7233 15.39 34.0957 15.4902C34.4681 15.5905 34.7975 15.7552 35.084 15.9844C35.3848 16.1992 35.6211 16.4928 35.793 16.8652C35.9792 17.2376 36.0723 17.7031 36.0723 18.2617C36.0723 18.9206 35.9434 19.4935 35.6855 19.9805C35.4421 20.4674 35.1413 20.8757 34.7832 21.2051C34.4395 21.5345 34.0814 21.7995 33.709 22C33.3509 22.2005 33.0645 22.3438 32.8496 22.4297L32.5918 21.5918C32.6348 21.5918 32.7923 21.5345 33.0645 21.4199C33.3509 21.3053 33.6445 21.1191 33.9453 20.8613C34.2604 20.5892 34.5469 20.2454 34.8047 19.8301C35.0625 19.4147 35.1914 18.9062 35.1914 18.3047C35.1914 17.6172 34.998 17.0944 34.6113 16.7363C34.2246 16.3639 33.7305 16.1777 33.1289 16.1777C32.6706 16.1777 32.1335 16.3424 31.5176 16.6719C30.9017 17.0013 30.3073 17.5169 29.7344 18.2188C29.1758 18.9206 28.696 19.8086 28.2949 20.8828C27.9082 21.957 27.7148 23.2389 27.7148 24.7285C27.7148 26.2038 27.9727 27.3281 28.4883 28.1016C29.0182 28.875 29.7272 29.2617 30.6152 29.2617C31.0592 29.2617 31.4818 29.14 31.8828 28.8965C32.2982 28.6387 32.6777 28.3021 33.0215 27.8867C33.3652 27.4714 33.6732 26.9915 33.9453 26.4473C34.2174 25.8887 34.4538 25.3158 34.6543 24.7285C34.6543 24.2702 34.7044 23.7331 34.8047 23.1172C34.9193 22.487 35.0911 21.8496 35.3203 21.2051L36.6309 21.6348C36.5592 21.821 36.4876 22.0645 36.416 22.3652C36.3444 22.666 36.2728 22.9954 36.2012 23.3535C36.1439 23.7116 36.0938 24.084 36.0508 24.4707C36.0078 24.8431 35.9863 25.2083 35.9863 25.5664C35.9863 26.6836 36.0938 27.457 36.3086 27.8867C36.5378 28.3021 36.9245 28.5098 37.4688 28.5098C37.7839 28.5098 38.0918 28.3952 38.3926 28.166C38.7077 27.9368 39.0443 27.5358 39.4023 26.9629C39.7604 26.39 40.1543 25.6165 40.584 24.6426C41.0137 23.6543 41.515 22.4082 42.0879 20.9043L42.9258 21.1191Z"/>
<path d="M57.2559 21.1191C56.8118 22.179 56.3893 23.0885 55.9883 23.8477C55.6016 24.6068 55.2148 25.237 54.8281 25.7383C54.4414 26.2253 54.0404 26.5905 53.625 26.834C53.224 27.0632 52.7871 27.1777 52.3145 27.1777C51.6699 27.1777 51.1185 26.9772 50.6602 26.5762C50.2161 26.1608 49.9512 25.6452 49.8652 25.0293C49.4642 25.9603 49.0417 26.7982 48.5977 27.543C48.1536 28.2734 47.7096 28.8965 47.2656 29.4121C46.8216 29.9277 46.3919 30.3288 45.9766 30.6152C45.5612 30.8874 45.196 31.0234 44.8809 31.0234C44.623 31.0234 44.3008 30.916 43.9141 30.7012C43.5417 30.4863 43.1836 30.1283 42.8398 29.627C42.4961 29.1257 42.2025 28.4668 41.959 27.6504C41.7155 26.8197 41.5938 25.8027 41.5938 24.5996C41.5938 23.8118 41.6439 23.0885 41.7441 22.4297C41.8587 21.7565 41.9805 21.1764 42.1094 20.6895C42.2669 20.1165 42.446 19.6009 42.6465 19.1426L43.4844 19.2285C43.4128 19.8444 43.3626 20.446 43.334 21.0332C43.3197 21.6061 43.3125 22.1576 43.3125 22.6875C43.3125 23.8763 43.3698 24.9362 43.4844 25.8672C43.599 26.7982 43.735 27.5859 43.8926 28.2305C44.0645 28.8607 44.2507 29.3477 44.4512 29.6914C44.6517 30.0208 44.8379 30.1855 45.0098 30.1855C45.2103 30.1855 45.4896 30.028 45.8477 29.7129C46.2057 29.3835 46.5996 28.9323 47.0293 28.3594C47.459 27.7865 47.8958 27.1133 48.3398 26.3398C48.7839 25.5664 49.1849 24.7357 49.543 23.8477C49.5 23.5755 49.4499 23.2461 49.3926 22.8594C49.3496 22.4583 49.3281 22.1146 49.3281 21.8281C49.3281 20.8828 49.4069 20.1237 49.5645 19.5508C49.7363 18.9779 49.9297 18.541 50.1445 18.2402C50.3737 17.9395 50.6029 17.7461 50.832 17.6602C51.0612 17.5599 51.2331 17.5098 51.3477 17.5098C51.7344 17.5098 51.9277 17.8034 51.9277 18.3906C51.9277 18.6914 51.8848 19.0566 51.7988 19.4863C51.7272 19.916 51.627 20.3672 51.498 20.8398C51.3835 21.3125 51.2474 21.7852 51.0898 22.2578C50.9323 22.7305 50.7676 23.1673 50.5957 23.5684C50.5957 24.0697 50.6458 24.4922 50.7461 24.8359C50.8607 25.1654 51.0039 25.4375 51.1758 25.6523C51.362 25.8529 51.5697 25.9961 51.7988 26.082C52.028 26.168 52.2643 26.2109 52.5078 26.2109C53.1237 26.2109 53.7467 25.7812 54.377 24.9219C55.0072 24.0482 55.6875 22.709 56.418 20.9043L57.2559 21.1191Z"/>
<path d="M61.123 31.1094C60.3926 31.1094 59.6908 30.9805 59.0176 30.7227C58.3444 30.4648 57.75 30.0781 57.2344 29.5625C56.7331 29.0326 56.332 28.3737 56.0312 27.5859C55.7305 26.7982 55.5801 25.8743 55.5801 24.8145C55.5801 23.5254 55.7663 22.3796 56.1387 21.377C56.5111 20.36 56.9837 19.5078 57.5566 18.8203C58.1439 18.1185 58.7956 17.5885 59.5117 17.2305C60.2279 16.8581 60.9297 16.6719 61.6172 16.6719C62.5052 16.6719 63.207 16.9655 63.7227 17.5527C64.2526 18.14 64.5176 18.8991 64.5176 19.8301C64.5176 20.6322 64.3672 21.3626 64.0664 22.0215C63.7656 22.666 63.3646 23.2246 62.8633 23.6973C62.3763 24.1556 61.8105 24.5137 61.166 24.7715C60.5358 25.0293 59.877 25.1582 59.1895 25.1582C58.86 25.1582 58.5449 25.1439 58.2441 25.1152C57.9577 25.0723 57.6999 25.0293 57.4707 24.9863C57.5566 25.8743 57.7285 26.6406 57.9863 27.2852C58.2441 27.9297 58.5664 28.4596 58.9531 28.875C59.3398 29.2904 59.7695 29.5983 60.2422 29.7988C60.7292 29.9993 61.2305 30.0996 61.7461 30.0996C62.3906 30.0996 62.985 29.9421 63.5293 29.627C64.0736 29.3118 64.5749 28.9036 65.0332 28.4023C65.4915 27.8867 65.9069 27.2995 66.2793 26.6406C66.666 25.9818 67.0098 25.3158 67.3105 24.6426C67.6113 23.9551 67.8763 23.2891 68.1055 22.6445C68.349 21.9857 68.5638 21.4056 68.75 20.9043L69.5879 21.1191C69.4017 21.5918 69.1797 22.1647 68.9219 22.8379C68.6784 23.5111 68.3919 24.2201 68.0625 24.9648C67.7331 25.6953 67.3464 26.4329 66.9023 27.1777C66.4583 27.9082 65.957 28.5671 65.3984 29.1543C64.8398 29.7272 64.2025 30.1999 63.4863 30.5723C62.7845 30.9303 61.9967 31.1094 61.123 31.1094ZM61.6602 17.5098C61.1302 17.5098 60.6074 17.6816 60.0918 18.0254C59.5905 18.3548 59.1393 18.8132 58.7383 19.4004C58.3372 19.9876 58.0078 20.6823 57.75 21.4844C57.5065 22.2865 57.3848 23.1458 57.3848 24.0625C57.571 24.1341 57.8288 24.1986 58.1582 24.2559C58.502 24.2988 58.9173 24.3203 59.4043 24.3203C59.9199 24.3203 60.4284 24.2129 60.9297 23.998C61.4453 23.7689 61.9036 23.4609 62.3047 23.0742C62.7201 22.6732 63.0495 22.2005 63.293 21.6562C63.5508 21.112 63.6797 20.5176 63.6797 19.873C63.6797 19.5579 63.6367 19.2572 63.5508 18.9707C63.4648 18.6842 63.3359 18.4336 63.1641 18.2188C62.9922 18.0039 62.7773 17.832 62.5195 17.7031C62.276 17.5742 61.9896 17.5098 61.6602 17.5098Z"/>
<path d="M73.9277 13.3203C74.1426 13.4492 74.4004 13.5996 74.7012 13.7715C75.002 13.9434 75.3529 14.1081 75.7539 14.2656C76.1549 14.4232 76.599 14.5736 77.0859 14.7168C77.5872 14.8457 78.1315 14.9388 78.7188 14.9961C78.9193 13.707 79.1771 12.5469 79.4922 11.5156C79.8073 10.4701 80.151 9.58203 80.5234 8.85156C80.9102 8.10677 81.304 7.54102 81.7051 7.1543C82.1204 6.75326 82.5215 6.55273 82.9082 6.55273C83.3522 6.55273 83.6673 6.72461 83.8535 7.06836C84.0397 7.41211 84.1328 7.87044 84.1328 8.44336C84.1328 8.85872 84.0898 9.31706 84.0039 9.81836C83.918 10.3197 83.8034 10.8568 83.6602 11.4297C83.5169 11.9883 83.3451 12.5755 83.1445 13.1914C82.944 13.793 82.7363 14.3945 82.5215 14.9961C83.9538 14.8672 85.2715 14.6309 86.4746 14.2871C87.6921 13.9434 88.7448 13.5924 89.6328 13.2344L90.041 14.0293C88.8665 14.4733 87.6491 14.8743 86.3887 15.2324C85.1283 15.5762 83.7174 15.791 82.1562 15.877C81.7982 16.8079 81.4258 17.696 81.0391 18.541C80.6667 19.3717 80.3229 20.0951 80.0078 20.7109C80.0221 21.513 80.0651 22.3867 80.1367 23.332C80.2227 24.263 80.3802 25.1367 80.6094 25.9531C80.8529 26.7695 81.1895 27.4499 81.6191 27.9941C82.0632 28.5384 82.6432 28.8105 83.3594 28.8105C83.9609 28.8105 84.5124 28.5599 85.0137 28.0586C85.515 27.543 85.9733 26.8984 86.3887 26.125C86.8184 25.3372 87.2122 24.4779 87.5703 23.5469C87.9284 22.6159 88.265 21.735 88.5801 20.9043L89.418 21.1191C89.2174 21.6348 89.0026 22.2148 88.7734 22.8594C88.5443 23.5039 88.2865 24.1628 88 24.8359C87.7135 25.4948 87.3984 26.1393 87.0547 26.7695C86.7109 27.3854 86.3314 27.944 85.916 28.4453C85.5007 28.9323 85.0423 29.3262 84.541 29.627C84.0397 29.9134 83.4954 30.0566 82.9082 30.0566C82.278 30.0566 81.6836 29.9134 81.125 29.627C80.5807 29.3405 80.1009 28.832 79.6855 28.1016C79.2845 27.3568 78.9622 26.3542 78.7188 25.0938C78.4896 23.819 78.375 22.2005 78.375 20.2383C78.375 18.6628 78.4609 17.1947 78.6328 15.834C77.401 15.6764 76.3698 15.4329 75.5391 15.1035C74.694 14.7598 74.0423 14.4303 73.584 14.1152L73.9277 13.3203ZM83.0371 7.69141C82.9082 7.69141 82.7148 7.82031 82.457 8.07812C82.1992 8.33594 81.9271 8.75846 81.6406 9.3457C81.3542 9.91862 81.0749 10.6777 80.8027 11.623C80.5449 12.554 80.3372 13.707 80.1797 15.082H81.6406C81.8984 14.3659 82.1204 13.6712 82.3066 12.998C82.5072 12.3249 82.679 11.7018 82.8223 11.1289C82.9655 10.5417 83.0729 10.0189 83.1445 9.56055C83.2161 9.08789 83.252 8.70117 83.252 8.40039C83.252 7.92773 83.1803 7.69141 83.0371 7.69141ZM80.0078 18.9922C80.2513 18.4909 80.4805 17.9896 80.6953 17.4883C80.9102 16.9727 81.1178 16.4499 81.3184 15.9199H80.0938C80.0651 16.3783 80.0436 16.8652 80.0293 17.3809C80.015 17.8822 80.0078 18.4049 80.0078 18.9492V18.9922Z"/>
<path d="M95.7344 7.17578C95.7344 8.07812 95.5768 9.08789 95.2617 10.2051C94.9609 11.3223 94.5456 12.5397 94.0156 13.8574C93.4857 15.1751 92.8626 16.5931 92.1465 18.1113C91.4447 19.6152 90.6927 21.2051 89.8906 22.8809C89.819 23.5684 89.7546 24.263 89.6973 24.9648C89.6543 25.6523 89.6113 26.347 89.5684 27.0488C89.7546 26.5762 89.9837 26.0319 90.2559 25.416C90.5423 24.7858 90.8574 24.1413 91.2012 23.4824C91.5592 22.8092 91.946 22.1504 92.3613 21.5059C92.7767 20.8613 93.2135 20.2884 93.6719 19.7871C94.1445 19.2715 94.6387 18.8561 95.1543 18.541C95.6842 18.2259 96.2285 18.0684 96.7871 18.0684C97.1738 18.0684 97.5247 18.14 97.8398 18.2832C98.1549 18.4264 98.4199 18.627 98.6348 18.8848C98.8639 19.1426 99.0358 19.4434 99.1504 19.7871C99.2793 20.1309 99.3438 20.5033 99.3438 20.9043C99.3438 21.4199 99.2721 21.9785 99.1289 22.5801C99 23.1673 98.8496 23.7689 98.6777 24.3848C98.5059 25.0007 98.3483 25.6165 98.2051 26.2324C98.0762 26.8483 98.0117 27.4284 98.0117 27.9727C98.0117 28.4167 98.1191 28.7962 98.334 29.1113C98.5488 29.4121 98.9427 29.5625 99.5156 29.5625C99.9167 29.5625 100.311 29.3978 100.697 29.0684C101.084 28.7389 101.456 28.3164 101.814 27.8008C102.173 27.2708 102.502 26.6836 102.803 26.0391C103.118 25.3802 103.404 24.7285 103.662 24.084C103.934 23.4395 104.171 22.8379 104.371 22.2793C104.586 21.7064 104.758 21.248 104.887 20.9043L105.725 21.1191C105.481 21.7637 105.23 22.444 104.973 23.1602C104.715 23.8763 104.436 24.5924 104.135 25.3086C103.848 26.0104 103.533 26.6836 103.189 27.3281C102.846 27.9727 102.466 28.5456 102.051 29.0469C101.65 29.5339 101.206 29.9277 100.719 30.2285C100.232 30.515 99.6875 30.6582 99.0859 30.6582C98.5417 30.6582 98.0905 30.5794 97.7324 30.4219C97.3743 30.2643 97.0879 30.0495 96.873 29.7773C96.6725 29.5052 96.5293 29.1829 96.4434 28.8105C96.3574 28.4238 96.3145 28.0013 96.3145 27.543C96.3145 27.056 96.3861 26.5046 96.5293 25.8887C96.6725 25.2585 96.8301 24.6139 97.002 23.9551C97.1882 23.2819 97.3529 22.6159 97.4961 21.957C97.6393 21.2839 97.7109 20.668 97.7109 20.1094C97.7109 19.7943 97.6322 19.515 97.4746 19.2715C97.3314 19.028 97.0736 18.9062 96.7012 18.9062C96.1139 18.9062 95.5482 19.1211 95.0039 19.5508C94.4596 19.9661 93.944 20.5104 93.457 21.1836C92.9701 21.8568 92.5117 22.6159 92.082 23.4609C91.6523 24.306 91.2585 25.151 90.9004 25.9961C90.5423 26.8268 90.2201 27.6217 89.9336 28.3809C89.6615 29.14 89.4251 29.7702 89.2246 30.2715L88.3867 30.1426C88.3867 30.071 88.3796 29.9779 88.3652 29.8633C88.3652 29.7344 88.3652 29.5625 88.3652 29.3477C88.3652 29.1328 88.3581 28.8678 88.3438 28.5527C88.3438 28.2233 88.3438 27.8294 88.3438 27.3711C88.3438 26.0247 88.3796 24.2487 88.4512 22.043C88.5228 19.8372 88.6947 17.1947 88.9668 14.1152C89.0814 12.6113 89.2533 11.3294 89.4824 10.2695C89.7116 9.19531 89.9694 8.30013 90.2559 7.58398C90.5423 6.85352 90.8431 6.27344 91.1582 5.84375C91.4876 5.41406 91.8027 5.0918 92.1035 4.87695C92.4043 4.64779 92.6836 4.50456 92.9414 4.44727C93.1992 4.37565 93.4141 4.33984 93.5859 4.33984C94.2448 4.33984 94.7676 4.59766 95.1543 5.11328C95.541 5.62891 95.7344 6.31641 95.7344 7.17578ZM93.6289 5.2207C93.2565 5.2207 92.9199 5.4069 92.6191 5.7793C92.3327 6.13737 92.0677 6.65299 91.8242 7.32617C91.5951 7.98503 91.3945 8.77995 91.2227 9.71094C91.0508 10.6419 90.8932 11.6803 90.75 12.8262C90.6068 13.9577 90.4779 15.1823 90.3633 16.5C90.263 17.8034 90.1628 19.1641 90.0625 20.582C90.7357 19.293 91.3587 18.0182 91.9316 16.7578C92.5189 15.4831 93.0273 14.2656 93.457 13.1055C93.8867 11.9453 94.2233 10.8639 94.4668 9.86133C94.7246 8.8444 94.8535 7.94922 94.8535 7.17578C94.8535 6.94661 94.832 6.71745 94.7891 6.48828C94.7604 6.24479 94.696 6.02995 94.5957 5.84375C94.5098 5.65755 94.388 5.50716 94.2305 5.39258C94.0729 5.27799 93.8724 5.2207 93.6289 5.2207Z"/>
<path d="M109.592 31.1094C108.861 31.1094 108.16 30.9805 107.486 30.7227C106.813 30.4648 106.219 30.0781 105.703 29.5625C105.202 29.0326 104.801 28.3737 104.5 27.5859C104.199 26.7982 104.049 25.8743 104.049 24.8145C104.049 23.5254 104.235 22.3796 104.607 21.377C104.98 20.36 105.452 19.5078 106.025 18.8203C106.613 18.1185 107.264 17.5885 107.98 17.2305C108.697 16.8581 109.398 16.6719 110.086 16.6719C110.974 16.6719 111.676 16.9655 112.191 17.5527C112.721 18.14 112.986 18.8991 112.986 19.8301C112.986 20.6322 112.836 21.3626 112.535 22.0215C112.234 22.666 111.833 23.2246 111.332 23.6973C110.845 24.1556 110.279 24.5137 109.635 24.7715C109.005 25.0293 108.346 25.1582 107.658 25.1582C107.329 25.1582 107.014 25.1439 106.713 25.1152C106.426 25.0723 106.169 25.0293 105.939 24.9863C106.025 25.8743 106.197 26.6406 106.455 27.2852C106.713 27.9297 107.035 28.4596 107.422 28.875C107.809 29.2904 108.238 29.5983 108.711 29.7988C109.198 29.9993 109.699 30.0996 110.215 30.0996C110.859 30.0996 111.454 29.9421 111.998 29.627C112.542 29.3118 113.044 28.9036 113.502 28.4023C113.96 27.8867 114.376 27.2995 114.748 26.6406C115.135 25.9818 115.479 25.3158 115.779 24.6426C116.08 23.9551 116.345 23.2891 116.574 22.6445C116.818 21.9857 117.033 21.4056 117.219 20.9043L118.057 21.1191C117.87 21.5918 117.648 22.1647 117.391 22.8379C117.147 23.5111 116.861 24.2201 116.531 24.9648C116.202 25.6953 115.815 26.4329 115.371 27.1777C114.927 27.9082 114.426 28.5671 113.867 29.1543C113.309 29.7272 112.671 30.1999 111.955 30.5723C111.253 30.9303 110.465 31.1094 109.592 31.1094ZM110.129 17.5098C109.599 17.5098 109.076 17.6816 108.561 18.0254C108.059 18.3548 107.608 18.8132 107.207 19.4004C106.806 19.9876 106.477 20.6823 106.219 21.4844C105.975 22.2865 105.854 23.1458 105.854 24.0625C106.04 24.1341 106.298 24.1986 106.627 24.2559C106.971 24.2988 107.386 24.3203 107.873 24.3203C108.389 24.3203 108.897 24.2129 109.398 23.998C109.914 23.7689 110.372 23.4609 110.773 23.0742C111.189 22.6732 111.518 22.2005 111.762 21.6562C112.02 21.112 112.148 20.5176 112.148 19.873C112.148 19.5579 112.105 19.2572 112.02 18.9707C111.934 18.6842 111.805 18.4336 111.633 18.2188C111.461 18.0039 111.246 17.832 110.988 17.7031C110.745 17.5742 110.458 17.5098 110.129 17.5098Z"/>
<path d="M133.676 33.5156C132.573 33.5156 131.563 33.3796 130.646 33.1074C129.73 32.8353 128.942 32.4414 128.283 31.9258C127.639 31.4102 127.13 30.7799 126.758 30.0352C126.4 29.2904 126.221 28.4453 126.221 27.5C126.221 26.526 126.443 25.5378 126.887 24.5352C127.345 23.5182 128.004 22.5801 128.863 21.7207L129.271 22.1289C128.827 22.7018 128.455 23.3893 128.154 24.1914C127.868 24.9935 127.725 25.8457 127.725 26.748C127.725 27.4785 127.832 28.2018 128.047 28.918C128.276 29.6198 128.627 30.25 129.1 30.8086C129.572 31.3672 130.181 31.8184 130.926 32.1621C131.685 32.5059 132.602 32.6777 133.676 32.6777C133.762 32.6777 133.848 32.6706 133.934 32.6562C134.02 32.6419 134.105 32.6348 134.191 32.6348C133.747 31.2884 133.346 29.6413 132.988 27.6934C132.645 25.7454 132.473 23.4824 132.473 20.9043C132.473 18.498 132.616 16.3783 132.902 14.5449C133.189 12.7116 133.525 11.1289 133.912 9.79688C134.299 8.46484 134.693 7.36914 135.094 6.50977C135.509 5.63607 135.839 4.96289 136.082 4.49023L136.705 4.61914C136.576 5.23503 136.411 6.08008 136.211 7.1543C136.01 8.21419 135.81 9.52474 135.609 11.0859C135.423 12.6328 135.258 14.4447 135.115 16.5215C134.972 18.5983 134.9 20.9473 134.9 23.5684C134.9 25.0436 134.943 26.5332 135.029 28.0371C135.115 29.5267 135.244 31.0306 135.416 32.5488C137.149 32.3626 138.768 31.9258 140.271 31.2383C141.775 30.5508 143.143 29.6842 144.375 28.6387C145.621 27.5931 146.724 26.4043 147.684 25.0723C148.643 23.7402 149.452 22.3366 150.111 20.8613C150.785 19.3861 151.293 17.875 151.637 16.3281C151.98 14.7812 152.152 13.2702 152.152 11.7949C152.152 9.84701 151.852 8.17839 151.25 6.78906C150.648 5.39974 149.868 4.26823 148.908 3.39453C147.949 2.50651 146.86 1.86198 145.643 1.46094C144.439 1.04557 143.236 0.837891 142.033 0.837891C140.844 0.837891 139.742 0.916667 138.725 1.07422C137.708 1.23177 136.77 1.43945 135.91 1.69727C135.065 1.95508 134.292 2.2487 133.59 2.57812C132.902 2.89323 132.286 3.22266 131.742 3.56641C130.453 4.36849 129.393 5.27799 128.562 6.29492L127.854 5.80078C127.868 5.77214 127.997 5.60742 128.24 5.30664C128.498 5.00586 128.878 4.64062 129.379 4.21094C129.88 3.78125 130.51 3.32292 131.27 2.83594C132.043 2.34896 132.945 1.89779 133.977 1.48242C135.022 1.05273 136.211 0.701823 137.543 0.429688C138.889 0.143229 140.386 0 142.033 0C144.01 0 145.779 0.257812 147.34 0.773438C148.901 1.28906 150.219 2.05534 151.293 3.07227C152.382 4.07487 153.212 5.32096 153.785 6.81055C154.358 8.28581 154.645 9.99023 154.645 11.9238C154.645 14.1868 154.351 16.2708 153.764 18.1758C153.176 20.0664 152.389 21.7852 151.4 23.332C150.412 24.8646 149.273 26.2181 147.984 27.3926C146.695 28.5671 145.342 29.5768 143.924 30.4219C142.506 31.2526 141.074 31.9115 139.627 32.3984C138.18 32.8997 136.812 33.2292 135.523 33.3867C135.566 33.6589 135.609 33.9167 135.652 34.1602C135.695 34.4036 135.738 34.6615 135.781 34.9336L135.072 35.0195C134.986 34.7904 134.886 34.5469 134.771 34.2891C134.671 34.0312 134.564 33.7591 134.449 33.4727C134.32 33.5013 134.191 33.5156 134.062 33.5156C133.934 33.5156 133.805 33.5156 133.676 33.5156Z"/>
<path d="M174.324 21.1191C173.737 22.709 173.2 24.041 172.713 25.1152C172.24 26.1895 171.775 27.056 171.316 27.7148C170.872 28.3737 170.428 28.8464 169.984 29.1328C169.54 29.4193 169.053 29.5625 168.523 29.5625C167.879 29.5625 167.327 29.3405 166.869 28.8965C166.411 28.4382 166.124 27.7363 166.01 26.791C165.551 27.7793 164.957 28.5885 164.227 29.2188C163.496 29.8346 162.579 30.1426 161.477 30.1426C160.889 30.1426 160.324 30.0352 159.779 29.8203C159.249 29.6055 158.777 29.276 158.361 28.832C157.946 28.3737 157.609 27.8008 157.352 27.1133C157.108 26.4258 156.986 25.6165 156.986 24.6855C156.986 23.7402 157.101 22.8522 157.33 22.0215C157.574 21.1908 157.889 20.4316 158.275 19.7441C158.662 19.0423 159.106 18.4193 159.607 17.875C160.123 17.3307 160.653 16.8724 161.197 16.5C161.742 16.1276 162.286 15.8411 162.83 15.6406C163.374 15.4401 163.876 15.3398 164.334 15.3398C164.735 15.3398 165.122 15.39 165.494 15.4902C165.867 15.5905 166.196 15.7552 166.482 15.9844C166.783 16.1992 167.02 16.4928 167.191 16.8652C167.378 17.2376 167.471 17.7031 167.471 18.2617C167.471 18.9206 167.342 19.4935 167.084 19.9805C166.84 20.4674 166.54 20.8757 166.182 21.2051C165.838 21.5345 165.48 21.7995 165.107 22C164.749 22.2005 164.463 22.3438 164.248 22.4297L163.99 21.5918C164.033 21.5918 164.191 21.5345 164.463 21.4199C164.749 21.3053 165.043 21.1191 165.344 20.8613C165.659 20.5892 165.945 20.2454 166.203 19.8301C166.461 19.4147 166.59 18.9062 166.59 18.3047C166.59 17.6172 166.396 17.0944 166.01 16.7363C165.623 16.3639 165.129 16.1777 164.527 16.1777C164.069 16.1777 163.532 16.3424 162.916 16.6719C162.3 17.0013 161.706 17.5169 161.133 18.2188C160.574 18.9206 160.094 19.8086 159.693 20.8828C159.307 21.957 159.113 23.2389 159.113 24.7285C159.113 26.2038 159.371 27.3281 159.887 28.1016C160.417 28.875 161.126 29.2617 162.014 29.2617C162.458 29.2617 162.88 29.14 163.281 28.8965C163.697 28.6387 164.076 28.3021 164.42 27.8867C164.764 27.4714 165.072 26.9915 165.344 26.4473C165.616 25.8887 165.852 25.3158 166.053 24.7285C166.053 24.2702 166.103 23.7331 166.203 23.1172C166.318 22.487 166.49 21.8496 166.719 21.2051L168.029 21.6348C167.958 21.821 167.886 22.0645 167.814 22.3652C167.743 22.666 167.671 22.9954 167.6 23.3535C167.542 23.7116 167.492 24.084 167.449 24.4707C167.406 24.8431 167.385 25.2083 167.385 25.5664C167.385 26.6836 167.492 27.457 167.707 27.8867C167.936 28.3021 168.323 28.5098 168.867 28.5098C169.182 28.5098 169.49 28.3952 169.791 28.166C170.106 27.9368 170.443 27.5358 170.801 26.9629C171.159 26.39 171.553 25.6165 171.982 24.6426C172.412 23.6543 172.913 22.4082 173.486 20.9043L174.324 21.1191Z"/>
<path d="M168.975 13.3203C169.189 13.4492 169.447 13.5996 169.748 13.7715C170.049 13.9434 170.4 14.1081 170.801 14.2656C171.202 14.4232 171.646 14.5736 172.133 14.7168C172.634 14.8457 173.178 14.9388 173.766 14.9961C173.966 13.707 174.224 12.5469 174.539 11.5156C174.854 10.4701 175.198 9.58203 175.57 8.85156C175.957 8.10677 176.351 7.54102 176.752 7.1543C177.167 6.75326 177.568 6.55273 177.955 6.55273C178.399 6.55273 178.714 6.72461 178.9 7.06836C179.087 7.41211 179.18 7.87044 179.18 8.44336C179.18 8.85872 179.137 9.31706 179.051 9.81836C178.965 10.3197 178.85 10.8568 178.707 11.4297C178.564 11.9883 178.392 12.5755 178.191 13.1914C177.991 13.793 177.783 14.3945 177.568 14.9961C179.001 14.8672 180.318 14.6309 181.521 14.2871C182.739 13.9434 183.792 13.5924 184.68 13.2344L185.088 14.0293C183.913 14.4733 182.696 14.8743 181.436 15.2324C180.175 15.5762 178.764 15.791 177.203 15.877C176.845 16.8079 176.473 17.696 176.086 18.541C175.714 19.3717 175.37 20.0951 175.055 20.7109C175.069 21.513 175.112 22.3867 175.184 23.332C175.27 24.263 175.427 25.1367 175.656 25.9531C175.9 26.7695 176.236 27.4499 176.666 27.9941C177.11 28.5384 177.69 28.8105 178.406 28.8105C179.008 28.8105 179.559 28.5599 180.061 28.0586C180.562 27.543 181.02 26.8984 181.436 26.125C181.865 25.3372 182.259 24.4779 182.617 23.5469C182.975 22.6159 183.312 21.735 183.627 20.9043L184.465 21.1191C184.264 21.6348 184.049 22.2148 183.82 22.8594C183.591 23.5039 183.333 24.1628 183.047 24.8359C182.76 25.4948 182.445 26.1393 182.102 26.7695C181.758 27.3854 181.378 27.944 180.963 28.4453C180.548 28.9323 180.089 29.3262 179.588 29.627C179.087 29.9134 178.542 30.0566 177.955 30.0566C177.325 30.0566 176.73 29.9134 176.172 29.627C175.628 29.3405 175.148 28.832 174.732 28.1016C174.331 27.3568 174.009 26.3542 173.766 25.0938C173.536 23.819 173.422 22.2005 173.422 20.2383C173.422 18.6628 173.508 17.1947 173.68 15.834C172.448 15.6764 171.417 15.4329 170.586 15.1035C169.741 14.7598 169.089 14.4303 168.631 14.1152L168.975 13.3203ZM178.084 7.69141C177.955 7.69141 177.762 7.82031 177.504 8.07812C177.246 8.33594 176.974 8.75846 176.688 9.3457C176.401 9.91862 176.122 10.6777 175.85 11.623C175.592 12.554 175.384 13.707 175.227 15.082H176.688C176.945 14.3659 177.167 13.6712 177.354 12.998C177.554 12.3249 177.726 11.7018 177.869 11.1289C178.012 10.5417 178.12 10.0189 178.191 9.56055C178.263 9.08789 178.299 8.70117 178.299 8.40039C178.299 7.92773 178.227 7.69141 178.084 7.69141ZM175.055 18.9922C175.298 18.4909 175.527 17.9896 175.742 17.4883C175.957 16.9727 176.165 16.4499 176.365 15.9199H175.141C175.112 16.3783 175.09 16.8652 175.076 17.3809C175.062 17.8822 175.055 18.4049 175.055 18.9492V18.9922Z"/>
<path d="M188.354 31.1094C187.623 31.1094 186.921 30.9805 186.248 30.7227C185.575 30.4648 184.98 30.0781 184.465 29.5625C183.964 29.0326 183.562 28.3737 183.262 27.5859C182.961 26.7982 182.811 25.8743 182.811 24.8145C182.811 23.5254 182.997 22.3796 183.369 21.377C183.742 20.36 184.214 19.5078 184.787 18.8203C185.374 18.1185 186.026 17.5885 186.742 17.2305C187.458 16.8581 188.16 16.6719 188.848 16.6719C189.736 16.6719 190.438 16.9655 190.953 17.5527C191.483 18.14 191.748 18.8991 191.748 19.8301C191.748 20.6322 191.598 21.3626 191.297 22.0215C190.996 22.666 190.595 23.2246 190.094 23.6973C189.607 24.1556 189.041 24.5137 188.396 24.7715C187.766 25.0293 187.107 25.1582 186.42 25.1582C186.09 25.1582 185.775 25.1439 185.475 25.1152C185.188 25.0723 184.93 25.0293 184.701 24.9863C184.787 25.8743 184.959 26.6406 185.217 27.2852C185.475 27.9297 185.797 28.4596 186.184 28.875C186.57 29.2904 187 29.5983 187.473 29.7988C187.96 29.9993 188.461 30.0996 188.977 30.0996C189.621 30.0996 190.215 29.9421 190.76 29.627C191.304 29.3118 191.805 28.9036 192.264 28.4023C192.722 27.8867 193.137 27.2995 193.51 26.6406C193.896 25.9818 194.24 25.3158 194.541 24.6426C194.842 23.9551 195.107 23.2891 195.336 22.6445C195.579 21.9857 195.794 21.4056 195.98 20.9043L196.818 21.1191C196.632 21.5918 196.41 22.1647 196.152 22.8379C195.909 23.5111 195.622 24.2201 195.293 24.9648C194.964 25.6953 194.577 26.4329 194.133 27.1777C193.689 27.9082 193.188 28.5671 192.629 29.1543C192.07 29.7272 191.433 30.1999 190.717 30.5723C190.015 30.9303 189.227 31.1094 188.354 31.1094ZM188.891 17.5098C188.361 17.5098 187.838 17.6816 187.322 18.0254C186.821 18.3548 186.37 18.8132 185.969 19.4004C185.568 19.9876 185.238 20.6823 184.98 21.4844C184.737 22.2865 184.615 23.1458 184.615 24.0625C184.801 24.1341 185.059 24.1986 185.389 24.2559C185.732 24.2988 186.148 24.3203 186.635 24.3203C187.15 24.3203 187.659 24.2129 188.16 23.998C188.676 23.7689 189.134 23.4609 189.535 23.0742C189.951 22.6732 190.28 22.2005 190.523 21.6562C190.781 21.112 190.91 20.5176 190.91 19.873C190.91 19.5579 190.867 19.2572 190.781 18.9707C190.695 18.6842 190.566 18.4336 190.395 18.2188C190.223 18.0039 190.008 17.832 189.75 17.7031C189.507 17.5742 189.22 17.5098 188.891 17.5098Z"/>
</mask>
<path class="save-the-animation" d="M4.79102 9.10938C4.79102 9.91146 4.95573 10.6348 5.28516 11.2793C5.61458 11.9095 6.05859 12.4896 6.61719 13.0195C7.17578 13.5352 7.82747 14.015 8.57227 14.459C9.33138 14.8887 10.1335 15.3112 10.9785 15.7266C11.8236 16.1276 12.6901 16.5286 13.5781 16.9297C14.4805 17.3164 15.3542 17.7318 16.1992 18.1758C17.0443 18.6055 17.8392 19.0781 18.584 19.5938C19.3431 20.0951 20.002 20.6608 20.5605 21.291C21.1191 21.9069 21.5632 22.6016 21.8926 23.375C22.222 24.1341 22.3867 24.9935 22.3867 25.9531C22.3867 27.7005 22.0573 29.2188 21.3984 30.5078C20.7396 31.7826 19.8587 32.8353 18.7559 33.666C17.653 34.5111 16.3711 35.1341 14.9102 35.5352C13.4492 35.9505 11.9238 36.1582 10.334 36.1582C8.93034 36.1582 7.60547 35.972 6.35938 35.5996C5.11328 35.2415 4.01758 34.7331 3.07227 34.0742C2.12695 33.4297 1.375 32.6491 0.816406 31.7324C0.272135 30.8301 0 29.8418 0 28.7676C0 27.8223 0.143229 27.0202 0.429688 26.3613C0.730469 25.6882 1.05273 25.1367 1.39648 24.707C1.75456 24.2773 2.09115 23.9622 2.40625 23.7617C2.72135 23.5612 2.90039 23.4538 2.94336 23.4395L3.41602 24.4492C3.38737 24.4635 3.2513 24.5566 3.00781 24.7285C2.76432 24.8861 2.49935 25.1367 2.21289 25.4805C1.94076 25.8242 1.68294 26.2682 1.43945 26.8125C1.21029 27.3424 1.0957 27.9941 1.0957 28.7676C1.0957 29.541 1.23893 30.2357 1.52539 30.8516C1.82617 31.4531 2.22005 31.9831 2.70703 32.4414C3.20833 32.8997 3.77409 33.2936 4.4043 33.623C5.04883 33.9525 5.71484 34.2174 6.40234 34.418C7.08984 34.6328 7.77734 34.7832 8.46484 34.8691C9.15234 34.9694 9.78971 35.0195 10.377 35.0195C11.8952 35.0195 13.2702 34.8262 14.502 34.4395C15.7337 34.0671 16.7793 33.5443 17.6387 32.8711C18.5124 32.2122 19.1855 31.446 19.6582 30.5723C20.1309 29.6842 20.3672 28.7318 20.3672 27.7148C20.3672 26.569 20.1237 25.5807 19.6367 24.75C19.1497 23.9193 18.5052 23.1888 17.7031 22.5586C16.901 21.9141 15.9844 21.3411 14.9531 20.8398C13.9362 20.3242 12.8906 19.8229 11.8164 19.3359C10.7565 18.849 9.71094 18.3405 8.67969 17.8105C7.66276 17.2663 6.75326 16.6432 5.95117 15.9414C5.14909 15.2396 4.50456 14.4303 4.01758 13.5137C3.5306 12.5827 3.28711 11.4798 3.28711 10.2051C3.28711 8.78711 3.52344 7.49089 3.99609 6.31641C4.48307 5.14193 5.14193 4.13216 5.97266 3.28711C6.81771 2.42773 7.80599 1.76888 8.9375 1.31055C10.069 0.837891 11.2936 0.601562 12.6113 0.601562C13.9434 0.601562 15.1107 0.759115 16.1133 1.07422C17.1159 1.375 17.9538 1.80469 18.627 2.36328C19.3145 2.90755 19.8229 3.56641 20.1523 4.33984C20.4961 5.11328 20.668 5.96549 20.668 6.89648C20.668 7.6556 20.5749 8.40039 20.3887 9.13086C20.2168 9.84701 20.0234 10.4915 19.8086 11.0645C19.5938 11.6374 19.3932 12.1029 19.207 12.4609C19.0208 12.819 18.9206 13.0195 18.9062 13.0625L17.9395 12.5254C17.9395 12.5111 18.0182 12.3392 18.1758 12.0098C18.3477 11.6803 18.5339 11.2507 18.7344 10.7207C18.9349 10.1908 19.1139 9.59635 19.2715 8.9375C19.4434 8.26432 19.5293 7.58398 19.5293 6.89648C19.5293 6.12305 19.3861 5.42122 19.0996 4.79102C18.8275 4.14648 18.4049 3.60221 17.832 3.1582C17.2591 2.71419 16.5358 2.37044 15.6621 2.12695C14.7884 1.88346 13.7572 1.76172 12.5684 1.76172C11.4655 1.76172 10.4414 1.94792 9.49609 2.32031C8.55078 2.67839 7.72721 3.18685 7.02539 3.8457C6.33789 4.50456 5.79362 5.28516 5.39258 6.1875C4.99154 7.07552 4.79102 8.04948 4.79102 9.10938Z" stroke="#F6D9DB" stroke-width="4" mask="url(#path-1-inside-1)"/>
<path class="save-the-animation" d="M42.9258 21.1191C42.3385 22.709 41.8014 24.041 41.3145 25.1152C40.8418 26.1895 40.3763 27.056 39.918 27.7148C39.474 28.3737 39.0299 28.8464 38.5859 29.1328C38.1419 29.4193 37.6549 29.5625 37.125 29.5625C36.4805 29.5625 35.929 29.3405 35.4707 28.8965C35.0124 28.4382 34.7259 27.7363 34.6113 26.791C34.153 27.7793 33.5586 28.5885 32.8281 29.2188C32.0977 29.8346 31.181 30.1426 30.0781 30.1426C29.4909 30.1426 28.9251 30.0352 28.3809 29.8203C27.8509 29.6055 27.3783 29.276 26.9629 28.832C26.5475 28.3737 26.2109 27.8008 25.9531 27.1133C25.7096 26.4258 25.5879 25.6165 25.5879 24.6855C25.5879 23.7402 25.7025 22.8522 25.9316 22.0215C26.1751 21.1908 26.4902 20.4316 26.877 19.7441C27.2637 19.0423 27.7077 18.4193 28.209 17.875C28.7246 17.3307 29.2546 16.8724 29.7988 16.5C30.3431 16.1276 30.8874 15.8411 31.4316 15.6406C31.9759 15.4401 32.4772 15.3398 32.9355 15.3398C33.3366 15.3398 33.7233 15.39 34.0957 15.4902C34.4681 15.5905 34.7975 15.7552 35.084 15.9844C35.3848 16.1992 35.6211 16.4928 35.793 16.8652C35.9792 17.2376 36.0723 17.7031 36.0723 18.2617C36.0723 18.9206 35.9434 19.4935 35.6855 19.9805C35.4421 20.4674 35.1413 20.8757 34.7832 21.2051C34.4395 21.5345 34.0814 21.7995 33.709 22C33.3509 22.2005 33.0645 22.3438 32.8496 22.4297L32.5918 21.5918C32.6348 21.5918 32.7923 21.5345 33.0645 21.4199C33.3509 21.3053 33.6445 21.1191 33.9453 20.8613C34.2604 20.5892 34.5469 20.2454 34.8047 19.8301C35.0625 19.4147 35.1914 18.9062 35.1914 18.3047C35.1914 17.6172 34.998 17.0944 34.6113 16.7363C34.2246 16.3639 33.7305 16.1777 33.1289 16.1777C32.6706 16.1777 32.1335 16.3424 31.5176 16.6719C30.9017 17.0013 30.3073 17.5169 29.7344 18.2188C29.1758 18.9206 28.696 19.8086 28.2949 20.8828C27.9082 21.957 27.7148 23.2389 27.7148 24.7285C27.7148 26.2038 27.9727 27.3281 28.4883 28.1016C29.0182 28.875 29.7272 29.2617 30.6152 29.2617C31.0592 29.2617 31.4818 29.14 31.8828 28.8965C32.2982 28.6387 32.6777 28.3021 33.0215 27.8867C33.3652 27.4714 33.6732 26.9915 33.9453 26.4473C34.2174 25.8887 34.4538 25.3158 34.6543 24.7285C34.6543 24.2702 34.7044 23.7331 34.8047 23.1172C34.9193 22.487 35.0911 21.8496 35.3203 21.2051L36.6309 21.6348C36.5592 21.821 36.4876 22.0645 36.416 22.3652C36.3444 22.666 36.2728 22.9954 36.2012 23.3535C36.1439 23.7116 36.0938 24.084 36.0508 24.4707C36.0078 24.8431 35.9863 25.2083 35.9863 25.5664C35.9863 26.6836 36.0938 27.457 36.3086 27.8867C36.5378 28.3021 36.9245 28.5098 37.4688 28.5098C37.7839 28.5098 38.0918 28.3952 38.3926 28.166C38.7077 27.9368 39.0443 27.5358 39.4023 26.9629C39.7604 26.39 40.1543 25.6165 40.584 24.6426C41.0137 23.6543 41.515 22.4082 42.0879 20.9043L42.9258 21.1191Z" stroke="#F6D9DB" stroke-width="4" mask="url(#path-1-inside-1)"/>
<path class="save-the-animation" d="M57.2559 21.1191C56.8118 22.179 56.3893 23.0885 55.9883 23.8477C55.6016 24.6068 55.2148 25.237 54.8281 25.7383C54.4414 26.2253 54.0404 26.5905 53.625 26.834C53.224 27.0632 52.7871 27.1777 52.3145 27.1777C51.6699 27.1777 51.1185 26.9772 50.6602 26.5762C50.2161 26.1608 49.9512 25.6452 49.8652 25.0293C49.4642 25.9603 49.0417 26.7982 48.5977 27.543C48.1536 28.2734 47.7096 28.8965 47.2656 29.4121C46.8216 29.9277 46.3919 30.3288 45.9766 30.6152C45.5612 30.8874 45.196 31.0234 44.8809 31.0234C44.623 31.0234 44.3008 30.916 43.9141 30.7012C43.5417 30.4863 43.1836 30.1283 42.8398 29.627C42.4961 29.1257 42.2025 28.4668 41.959 27.6504C41.7155 26.8197 41.5938 25.8027 41.5938 24.5996C41.5938 23.8118 41.6439 23.0885 41.7441 22.4297C41.8587 21.7565 41.9805 21.1764 42.1094 20.6895C42.2669 20.1165 42.446 19.6009 42.6465 19.1426L43.4844 19.2285C43.4128 19.8444 43.3626 20.446 43.334 21.0332C43.3197 21.6061 43.3125 22.1576 43.3125 22.6875C43.3125 23.8763 43.3698 24.9362 43.4844 25.8672C43.599 26.7982 43.735 27.5859 43.8926 28.2305C44.0645 28.8607 44.2507 29.3477 44.4512 29.6914C44.6517 30.0208 44.8379 30.1855 45.0098 30.1855C45.2103 30.1855 45.4896 30.028 45.8477 29.7129C46.2057 29.3835 46.5996 28.9323 47.0293 28.3594C47.459 27.7865 47.8958 27.1133 48.3398 26.3398C48.7839 25.5664 49.1849 24.7357 49.543 23.8477C49.5 23.5755 49.4499 23.2461 49.3926 22.8594C49.3496 22.4583 49.3281 22.1146 49.3281 21.8281C49.3281 20.8828 49.4069 20.1237 49.5645 19.5508C49.7363 18.9779 49.9297 18.541 50.1445 18.2402C50.3737 17.9395 50.6029 17.7461 50.832 17.6602C51.0612 17.5599 51.2331 17.5098 51.3477 17.5098C51.7344 17.5098 51.9277 17.8034 51.9277 18.3906C51.9277 18.6914 51.8848 19.0566 51.7988 19.4863C51.7272 19.916 51.627 20.3672 51.498 20.8398C51.3835 21.3125 51.2474 21.7852 51.0898 22.2578C50.9323 22.7305 50.7676 23.1673 50.5957 23.5684C50.5957 24.0697 50.6458 24.4922 50.7461 24.8359C50.8607 25.1654 51.0039 25.4375 51.1758 25.6523C51.362 25.8529 51.5697 25.9961 51.7988 26.082C52.028 26.168 52.2643 26.2109 52.5078 26.2109C53.1237 26.2109 53.7467 25.7812 54.377 24.9219C55.0072 24.0482 55.6875 22.709 56.418 20.9043L57.2559 21.1191Z" stroke="#F6D9DB" stroke-width="4" mask="url(#path-1-inside-1)"/>
<path class="save-the-animation" d="M61.123 31.1094C60.3926 31.1094 59.6908 30.9805 59.0176 30.7227C58.3444 30.4648 57.75 30.0781 57.2344 29.5625C56.7331 29.0326 56.332 28.3737 56.0312 27.5859C55.7305 26.7982 55.5801 25.8743 55.5801 24.8145C55.5801 23.5254 55.7663 22.3796 56.1387 21.377C56.5111 20.36 56.9837 19.5078 57.5566 18.8203C58.1439 18.1185 58.7956 17.5885 59.5117 17.2305C60.2279 16.8581 60.9297 16.6719 61.6172 16.6719C62.5052 16.6719 63.207 16.9655 63.7227 17.5527C64.2526 18.14 64.5176 18.8991 64.5176 19.8301C64.5176 20.6322 64.3672 21.3626 64.0664 22.0215C63.7656 22.666 63.3646 23.2246 62.8633 23.6973C62.3763 24.1556 61.8105 24.5137 61.166 24.7715C60.5358 25.0293 59.877 25.1582 59.1895 25.1582C58.86 25.1582 58.5449 25.1439 58.2441 25.1152C57.9577 25.0723 57.6999 25.0293 57.4707 24.9863C57.5566 25.8743 57.7285 26.6406 57.9863 27.2852C58.2441 27.9297 58.5664 28.4596 58.9531 28.875C59.3398 29.2904 59.7695 29.5983 60.2422 29.7988C60.7292 29.9993 61.2305 30.0996 61.7461 30.0996C62.3906 30.0996 62.985 29.9421 63.5293 29.627C64.0736 29.3118 64.5749 28.9036 65.0332 28.4023C65.4915 27.8867 65.9069 27.2995 66.2793 26.6406C66.666 25.9818 67.0098 25.3158 67.3105 24.6426C67.6113 23.9551 67.8763 23.2891 68.1055 22.6445C68.349 21.9857 68.5638 21.4056 68.75 20.9043L69.5879 21.1191C69.4017 21.5918 69.1797 22.1647 68.9219 22.8379C68.6784 23.5111 68.3919 24.2201 68.0625 24.9648C67.7331 25.6953 67.3464 26.4329 66.9023 27.1777C66.4583 27.9082 65.957 28.5671 65.3984 29.1543C64.8398 29.7272 64.2025 30.1999 63.4863 30.5723C62.7845 30.9303 61.9967 31.1094 61.123 31.1094ZM61.6602 17.5098C61.1302 17.5098 60.6074 17.6816 60.0918 18.0254C59.5905 18.3548 59.1393 18.8132 58.7383 19.4004C58.3372 19.9876 58.0078 20.6823 57.75 21.4844C57.5065 22.2865 57.3848 23.1458 57.3848 24.0625C57.571 24.1341 57.8288 24.1986 58.1582 24.2559C58.502 24.2988 58.9173 24.3203 59.4043 24.3203C59.9199 24.3203 60.4284 24.2129 60.9297 23.998C61.4453 23.7689 61.9036 23.4609 62.3047 23.0742C62.7201 22.6732 63.0495 22.2005 63.293 21.6562C63.5508 21.112 63.6797 20.5176 63.6797 19.873C63.6797 19.5579 63.6367 19.2572 63.5508 18.9707C63.4648 18.6842 63.3359 18.4336 63.1641 18.2188C62.9922 18.0039 62.7773 17.832 62.5195 17.7031C62.276 17.5742 61.9896 17.5098 61.6602 17.5098Z" stroke="#F6D9DB" stroke-width="4" mask="url(#path-1-inside-1)"/>
<path class="save-the-animation" d="M73.9277 13.3203C74.1426 13.4492 74.4004 13.5996 74.7012 13.7715C75.002 13.9434 75.3529 14.1081 75.7539 14.2656C76.1549 14.4232 76.599 14.5736 77.0859 14.7168C77.5872 14.8457 78.1315 14.9388 78.7188 14.9961C78.9193 13.707 79.1771 12.5469 79.4922 11.5156C79.8073 10.4701 80.151 9.58203 80.5234 8.85156C80.9102 8.10677 81.304 7.54102 81.7051 7.1543C82.1204 6.75326 82.5215 6.55273 82.9082 6.55273C83.3522 6.55273 83.6673 6.72461 83.8535 7.06836C84.0397 7.41211 84.1328 7.87044 84.1328 8.44336C84.1328 8.85872 84.0898 9.31706 84.0039 9.81836C83.918 10.3197 83.8034 10.8568 83.6602 11.4297C83.5169 11.9883 83.3451 12.5755 83.1445 13.1914C82.944 13.793 82.7363 14.3945 82.5215 14.9961C83.9538 14.8672 85.2715 14.6309 86.4746 14.2871C87.6921 13.9434 88.7448 13.5924 89.6328 13.2344L90.041 14.0293C88.8665 14.4733 87.6491 14.8743 86.3887 15.2324C85.1283 15.5762 83.7174 15.791 82.1562 15.877C81.7982 16.8079 81.4258 17.696 81.0391 18.541C80.6667 19.3717 80.3229 20.0951 80.0078 20.7109C80.0221 21.513 80.0651 22.3867 80.1367 23.332C80.2227 24.263 80.3802 25.1367 80.6094 25.9531C80.8529 26.7695 81.1895 27.4499 81.6191 27.9941C82.0632 28.5384 82.6432 28.8105 83.3594 28.8105C83.9609 28.8105 84.5124 28.5599 85.0137 28.0586C85.515 27.543 85.9733 26.8984 86.3887 26.125C86.8184 25.3372 87.2122 24.4779 87.5703 23.5469C87.9284 22.6159 88.265 21.735 88.5801 20.9043L89.418 21.1191C89.2174 21.6348 89.0026 22.2148 88.7734 22.8594C88.5443 23.5039 88.2865 24.1628 88 24.8359C87.7135 25.4948 87.3984 26.1393 87.0547 26.7695C86.7109 27.3854 86.3314 27.944 85.916 28.4453C85.5007 28.9323 85.0423 29.3262 84.541 29.627C84.0397 29.9134 83.4954 30.0566 82.9082 30.0566C82.278 30.0566 81.6836 29.9134 81.125 29.627C80.5807 29.3405 80.1009 28.832 79.6855 28.1016C79.2845 27.3568 78.9622 26.3542 78.7188 25.0938C78.4896 23.819 78.375 22.2005 78.375 20.2383C78.375 18.6628 78.4609 17.1947 78.6328 15.834C77.401 15.6764 76.3698 15.4329 75.5391 15.1035C74.694 14.7598 74.0423 14.4303 73.584 14.1152L73.9277 13.3203ZM83.0371 7.69141C82.9082 7.69141 82.7148 7.82031 82.457 8.07812C82.1992 8.33594 81.9271 8.75846 81.6406 9.3457C81.3542 9.91862 81.0749 10.6777 80.8027 11.623C80.5449 12.554 80.3372 13.707 80.1797 15.082H81.6406C81.8984 14.3659 82.1204 13.6712 82.3066 12.998C82.5072 12.3249 82.679 11.7018 82.8223 11.1289C82.9655 10.5417 83.0729 10.0189 83.1445 9.56055C83.2161 9.08789 83.252 8.70117 83.252 8.40039C83.252 7.92773 83.1803 7.69141 83.0371 7.69141ZM80.0078 18.9922C80.2513 18.4909 80.4805 17.9896 80.6953 17.4883C80.9102 16.9727 81.1178 16.4499 81.3184 15.9199H80.0938C80.0651 16.3783 80.0436 16.8652 80.0293 17.3809C80.015 17.8822 80.0078 18.4049 80.0078 18.9492V18.9922Z" stroke="#F6D9DB" stroke-width="4" mask="url(#path-1-inside-1)"/>
<path class="save-the-animation" d="M95.7344 7.17578C95.7344 8.07812 95.5768 9.08789 95.2617 10.2051C94.9609 11.3223 94.5456 12.5397 94.0156 13.8574C93.4857 15.1751 92.8626 16.5931 92.1465 18.1113C91.4447 19.6152 90.6927 21.2051 89.8906 22.8809C89.819 23.5684 89.7546 24.263 89.6973 24.9648C89.6543 25.6523 89.6113 26.347 89.5684 27.0488C89.7546 26.5762 89.9837 26.0319 90.2559 25.416C90.5423 24.7858 90.8574 24.1413 91.2012 23.4824C91.5592 22.8092 91.946 22.1504 92.3613 21.5059C92.7767 20.8613 93.2135 20.2884 93.6719 19.7871C94.1445 19.2715 94.6387 18.8561 95.1543 18.541C95.6842 18.2259 96.2285 18.0684 96.7871 18.0684C97.1738 18.0684 97.5247 18.14 97.8398 18.2832C98.1549 18.4264 98.4199 18.627 98.6348 18.8848C98.8639 19.1426 99.0358 19.4434 99.1504 19.7871C99.2793 20.1309 99.3438 20.5033 99.3438 20.9043C99.3438 21.4199 99.2721 21.9785 99.1289 22.5801C99 23.1673 98.8496 23.7689 98.6777 24.3848C98.5059 25.0007 98.3483 25.6165 98.2051 26.2324C98.0762 26.8483 98.0117 27.4284 98.0117 27.9727C98.0117 28.4167 98.1191 28.7962 98.334 29.1113C98.5488 29.4121 98.9427 29.5625 99.5156 29.5625C99.9167 29.5625 100.311 29.3978 100.697 29.0684C101.084 28.7389 101.456 28.3164 101.814 27.8008C102.173 27.2708 102.502 26.6836 102.803 26.0391C103.118 25.3802 103.404 24.7285 103.662 24.084C103.934 23.4395 104.171 22.8379 104.371 22.2793C104.586 21.7064 104.758 21.248 104.887 20.9043L105.725 21.1191C105.481 21.7637 105.23 22.444 104.973 23.1602C104.715 23.8763 104.436 24.5924 104.135 25.3086C103.848 26.0104 103.533 26.6836 103.189 27.3281C102.846 27.9727 102.466 28.5456 102.051 29.0469C101.65 29.5339 101.206 29.9277 100.719 30.2285C100.232 30.515 99.6875 30.6582 99.0859 30.6582C98.5417 30.6582 98.0905 30.5794 97.7324 30.4219C97.3743 30.2643 97.0879 30.0495 96.873 29.7773C96.6725 29.5052 96.5293 29.1829 96.4434 28.8105C96.3574 28.4238 96.3145 28.0013 96.3145 27.543C96.3145 27.056 96.3861 26.5046 96.5293 25.8887C96.6725 25.2585 96.8301 24.6139 97.002 23.9551C97.1882 23.2819 97.3529 22.6159 97.4961 21.957C97.6393 21.2839 97.7109 20.668 97.7109 20.1094C97.7109 19.7943 97.6322 19.515 97.4746 19.2715C97.3314 19.028 97.0736 18.9062 96.7012 18.9062C96.1139 18.9062 95.5482 19.1211 95.0039 19.5508C94.4596 19.9661 93.944 20.5104 93.457 21.1836C92.9701 21.8568 92.5117 22.6159 92.082 23.4609C91.6523 24.306 91.2585 25.151 90.9004 25.9961C90.5423 26.8268 90.2201 27.6217 89.9336 28.3809C89.6615 29.14 89.4251 29.7702 89.2246 30.2715L88.3867 30.1426C88.3867 30.071 88.3796 29.9779 88.3652 29.8633C88.3652 29.7344 88.3652 29.5625 88.3652 29.3477C88.3652 29.1328 88.3581 28.8678 88.3438 28.5527C88.3438 28.2233 88.3438 27.8294 88.3438 27.3711C88.3438 26.0247 88.3796 24.2487 88.4512 22.043C88.5228 19.8372 88.6947 17.1947 88.9668 14.1152C89.0814 12.6113 89.2533 11.3294 89.4824 10.2695C89.7116 9.19531 89.9694 8.30013 90.2559 7.58398C90.5423 6.85352 90.8431 6.27344 91.1582 5.84375C91.4876 5.41406 91.8027 5.0918 92.1035 4.87695C92.4043 4.64779 92.6836 4.50456 92.9414 4.44727C93.1992 4.37565 93.4141 4.33984 93.5859 4.33984C94.2448 4.33984 94.7676 4.59766 95.1543 5.11328C95.541 5.62891 95.7344 6.31641 95.7344 7.17578ZM93.6289 5.2207C93.2565 5.2207 92.9199 5.4069 92.6191 5.7793C92.3327 6.13737 92.0677 6.65299 91.8242 7.32617C91.5951 7.98503 91.3945 8.77995 91.2227 9.71094C91.0508 10.6419 90.8932 11.6803 90.75 12.8262C90.6068 13.9577 90.4779 15.1823 90.3633 16.5C90.263 17.8034 90.1628 19.1641 90.0625 20.582C90.7357 19.293 91.3587 18.0182 91.9316 16.7578C92.5189 15.4831 93.0273 14.2656 93.457 13.1055C93.8867 11.9453 94.2233 10.8639 94.4668 9.86133C94.7246 8.8444 94.8535 7.94922 94.8535 7.17578C94.8535 6.94661 94.832 6.71745 94.7891 6.48828C94.7604 6.24479 94.696 6.02995 94.5957 5.84375C94.5098 5.65755 94.388 5.50716 94.2305 5.39258C94.0729 5.27799 93.8724 5.2207 93.6289 5.2207Z" stroke="#F6D9DB" stroke-width="4" mask="url(#path-1-inside-1)"/>
<path class="save-the-animation" d="M109.592 31.1094C108.861 31.1094 108.16 30.9805 107.486 30.7227C106.813 30.4648 106.219 30.0781 105.703 29.5625C105.202 29.0326 104.801 28.3737 104.5 27.5859C104.199 26.7982 104.049 25.8743 104.049 24.8145C104.049 23.5254 104.235 22.3796 104.607 21.377C104.98 20.36 105.452 19.5078 106.025 18.8203C106.613 18.1185 107.264 17.5885 107.98 17.2305C108.697 16.8581 109.398 16.6719 110.086 16.6719C110.974 16.6719 111.676 16.9655 112.191 17.5527C112.721 18.14 112.986 18.8991 112.986 19.8301C112.986 20.6322 112.836 21.3626 112.535 22.0215C112.234 22.666 111.833 23.2246 111.332 23.6973C110.845 24.1556 110.279 24.5137 109.635 24.7715C109.005 25.0293 108.346 25.1582 107.658 25.1582C107.329 25.1582 107.014 25.1439 106.713 25.1152C106.426 25.0723 106.169 25.0293 105.939 24.9863C106.025 25.8743 106.197 26.6406 106.455 27.2852C106.713 27.9297 107.035 28.4596 107.422 28.875C107.809 29.2904 108.238 29.5983 108.711 29.7988C109.198 29.9993 109.699 30.0996 110.215 30.0996C110.859 30.0996 111.454 29.9421 111.998 29.627C112.542 29.3118 113.044 28.9036 113.502 28.4023C113.96 27.8867 114.376 27.2995 114.748 26.6406C115.135 25.9818 115.479 25.3158 115.779 24.6426C116.08 23.9551 116.345 23.2891 116.574 22.6445C116.818 21.9857 117.033 21.4056 117.219 20.9043L118.057 21.1191C117.87 21.5918 117.648 22.1647 117.391 22.8379C117.147 23.5111 116.861 24.2201 116.531 24.9648C116.202 25.6953 115.815 26.4329 115.371 27.1777C114.927 27.9082 114.426 28.5671 113.867 29.1543C113.309 29.7272 112.671 30.1999 111.955 30.5723C111.253 30.9303 110.465 31.1094 109.592 31.1094ZM110.129 17.5098C109.599 17.5098 109.076 17.6816 108.561 18.0254C108.059 18.3548 107.608 18.8132 107.207 19.4004C106.806 19.9876 106.477 20.6823 106.219 21.4844C105.975 22.2865 105.854 23.1458 105.854 24.0625C106.04 24.1341 106.298 24.1986 106.627 24.2559C106.971 24.2988 107.386 24.3203 107.873 24.3203C108.389 24.3203 108.897 24.2129 109.398 23.998C109.914 23.7689 110.372 23.4609 110.773 23.0742C111.189 22.6732 111.518 22.2005 111.762 21.6562C112.02 21.112 112.148 20.5176 112.148 19.873C112.148 19.5579 112.105 19.2572 112.02 18.9707C111.934 18.6842 111.805 18.4336 111.633 18.2188C111.461 18.0039 111.246 17.832 110.988 17.7031C110.745 17.5742 110.458 17.5098 110.129 17.5098Z" stroke="#F6D9DB" stroke-width="4" mask="url(#path-1-inside-1)"/>
<path class="save-the-animation" d="M133.676 33.5156C132.573 33.5156 131.563 33.3796 130.646 33.1074C129.73 32.8353 128.942 32.4414 128.283 31.9258C127.639 31.4102 127.13 30.7799 126.758 30.0352C126.4 29.2904 126.221 28.4453 126.221 27.5C126.221 26.526 126.443 25.5378 126.887 24.5352C127.345 23.5182 128.004 22.5801 128.863 21.7207L129.271 22.1289C128.827 22.7018 128.455 23.3893 128.154 24.1914C127.868 24.9935 127.725 25.8457 127.725 26.748C127.725 27.4785 127.832 28.2018 128.047 28.918C128.276 29.6198 128.627 30.25 129.1 30.8086C129.572 31.3672 130.181 31.8184 130.926 32.1621C131.685 32.5059 132.602 32.6777 133.676 32.6777C133.762 32.6777 133.848 32.6706 133.934 32.6562C134.02 32.6419 134.105 32.6348 134.191 32.6348C133.747 31.2884 133.346 29.6413 132.988 27.6934C132.645 25.7454 132.473 23.4824 132.473 20.9043C132.473 18.498 132.616 16.3783 132.902 14.5449C133.189 12.7116 133.525 11.1289 133.912 9.79688C134.299 8.46484 134.693 7.36914 135.094 6.50977C135.509 5.63607 135.839 4.96289 136.082 4.49023L136.705 4.61914C136.576 5.23503 136.411 6.08008 136.211 7.1543C136.01 8.21419 135.81 9.52474 135.609 11.0859C135.423 12.6328 135.258 14.4447 135.115 16.5215C134.972 18.5983 134.9 20.9473 134.9 23.5684C134.9 25.0436 134.943 26.5332 135.029 28.0371C135.115 29.5267 135.244 31.0306 135.416 32.5488C137.149 32.3626 138.768 31.9258 140.271 31.2383C141.775 30.5508 143.143 29.6842 144.375 28.6387C145.621 27.5931 146.724 26.4043 147.684 25.0723C148.643 23.7402 149.452 22.3366 150.111 20.8613C150.785 19.3861 151.293 17.875 151.637 16.3281C151.98 14.7812 152.152 13.2702 152.152 11.7949C152.152 9.84701 151.852 8.17839 151.25 6.78906C150.648 5.39974 149.868 4.26823 148.908 3.39453C147.949 2.50651 146.86 1.86198 145.643 1.46094C144.439 1.04557 143.236 0.837891 142.033 0.837891C140.844 0.837891 139.742 0.916667 138.725 1.07422C137.708 1.23177 136.77 1.43945 135.91 1.69727C135.065 1.95508 134.292 2.2487 133.59 2.57812C132.902 2.89323 132.286 3.22266 131.742 3.56641C130.453 4.36849 129.393 5.27799 128.562 6.29492L127.854 5.80078C127.868 5.77214 127.997 5.60742 128.24 5.30664C128.498 5.00586 128.878 4.64062 129.379 4.21094C129.88 3.78125 130.51 3.32292 131.27 2.83594C132.043 2.34896 132.945 1.89779 133.977 1.48242C135.022 1.05273 136.211 0.701823 137.543 0.429688C138.889 0.143229 140.386 0 142.033 0C144.01 0 145.779 0.257812 147.34 0.773438C148.901 1.28906 150.219 2.05534 151.293 3.07227C152.382 4.07487 153.212 5.32096 153.785 6.81055C154.358 8.28581 154.645 9.99023 154.645 11.9238C154.645 14.1868 154.351 16.2708 153.764 18.1758C153.176 20.0664 152.389 21.7852 151.4 23.332C150.412 24.8646 149.273 26.2181 147.984 27.3926C146.695 28.5671 145.342 29.5768 143.924 30.4219C142.506 31.2526 141.074 31.9115 139.627 32.3984C138.18 32.8997 136.812 33.2292 135.523 33.3867C135.566 33.6589 135.609 33.9167 135.652 34.1602C135.695 34.4036 135.738 34.6615 135.781 34.9336L135.072 35.0195C134.986 34.7904 134.886 34.5469 134.771 34.2891C134.671 34.0312 134.564 33.7591 134.449 33.4727C134.32 33.5013 134.191 33.5156 134.062 33.5156C133.934 33.5156 133.805 33.5156 133.676 33.5156Z" stroke="#F6D9DB" stroke-width="4" mask="url(#path-1-inside-1)"/>
<path class="save-the-animation" d="M174.324 21.1191C173.737 22.709 173.2 24.041 172.713 25.1152C172.24 26.1895 171.775 27.056 171.316 27.7148C170.872 28.3737 170.428 28.8464 169.984 29.1328C169.54 29.4193 169.053 29.5625 168.523 29.5625C167.879 29.5625 167.327 29.3405 166.869 28.8965C166.411 28.4382 166.124 27.7363 166.01 26.791C165.551 27.7793 164.957 28.5885 164.227 29.2188C163.496 29.8346 162.579 30.1426 161.477 30.1426C160.889 30.1426 160.324 30.0352 159.779 29.8203C159.249 29.6055 158.777 29.276 158.361 28.832C157.946 28.3737 157.609 27.8008 157.352 27.1133C157.108 26.4258 156.986 25.6165 156.986 24.6855C156.986 23.7402 157.101 22.8522 157.33 22.0215C157.574 21.1908 157.889 20.4316 158.275 19.7441C158.662 19.0423 159.106 18.4193 159.607 17.875C160.123 17.3307 160.653 16.8724 161.197 16.5C161.742 16.1276 162.286 15.8411 162.83 15.6406C163.374 15.4401 163.876 15.3398 164.334 15.3398C164.735 15.3398 165.122 15.39 165.494 15.4902C165.867 15.5905 166.196 15.7552 166.482 15.9844C166.783 16.1992 167.02 16.4928 167.191 16.8652C167.378 17.2376 167.471 17.7031 167.471 18.2617C167.471 18.9206 167.342 19.4935 167.084 19.9805C166.84 20.4674 166.54 20.8757 166.182 21.2051C165.838 21.5345 165.48 21.7995 165.107 22C164.749 22.2005 164.463 22.3438 164.248 22.4297L163.99 21.5918C164.033 21.5918 164.191 21.5345 164.463 21.4199C164.749 21.3053 165.043 21.1191 165.344 20.8613C165.659 20.5892 165.945 20.2454 166.203 19.8301C166.461 19.4147 166.59 18.9062 166.59 18.3047C166.59 17.6172 166.396 17.0944 166.01 16.7363C165.623 16.3639 165.129 16.1777 164.527 16.1777C164.069 16.1777 163.532 16.3424 162.916 16.6719C162.3 17.0013 161.706 17.5169 161.133 18.2188C160.574 18.9206 160.094 19.8086 159.693 20.8828C159.307 21.957 159.113 23.2389 159.113 24.7285C159.113 26.2038 159.371 27.3281 159.887 28.1016C160.417 28.875 161.126 29.2617 162.014 29.2617C162.458 29.2617 162.88 29.14 163.281 28.8965C163.697 28.6387 164.076 28.3021 164.42 27.8867C164.764 27.4714 165.072 26.9915 165.344 26.4473C165.616 25.8887 165.852 25.3158 166.053 24.7285C166.053 24.2702 166.103 23.7331 166.203 23.1172C166.318 22.487 166.49 21.8496 166.719 21.2051L168.029 21.6348C167.958 21.821 167.886 22.0645 167.814 22.3652C167.743 22.666 167.671 22.9954 167.6 23.3535C167.542 23.7116 167.492 24.084 167.449 24.4707C167.406 24.8431 167.385 25.2083 167.385 25.5664C167.385 26.6836 167.492 27.457 167.707 27.8867C167.936 28.3021 168.323 28.5098 168.867 28.5098C169.182 28.5098 169.49 28.3952 169.791 28.166C170.106 27.9368 170.443 27.5358 170.801 26.9629C171.159 26.39 171.553 25.6165 171.982 24.6426C172.412 23.6543 172.913 22.4082 173.486 20.9043L174.324 21.1191Z" stroke="#F6D9DB" stroke-width="4" mask="url(#path-1-inside-1)"/>
<path class="save-the-animation" d="M168.975 13.3203C169.189 13.4492 169.447 13.5996 169.748 13.7715C170.049 13.9434 170.4 14.1081 170.801 14.2656C171.202 14.4232 171.646 14.5736 172.133 14.7168C172.634 14.8457 173.178 14.9388 173.766 14.9961C173.966 13.707 174.224 12.5469 174.539 11.5156C174.854 10.4701 175.198 9.58203 175.57 8.85156C175.957 8.10677 176.351 7.54102 176.752 7.1543C177.167 6.75326 177.568 6.55273 177.955 6.55273C178.399 6.55273 178.714 6.72461 178.9 7.06836C179.087 7.41211 179.18 7.87044 179.18 8.44336C179.18 8.85872 179.137 9.31706 179.051 9.81836C178.965 10.3197 178.85 10.8568 178.707 11.4297C178.564 11.9883 178.392 12.5755 178.191 13.1914C177.991 13.793 177.783 14.3945 177.568 14.9961C179.001 14.8672 180.318 14.6309 181.521 14.2871C182.739 13.9434 183.792 13.5924 184.68 13.2344L185.088 14.0293C183.913 14.4733 182.696 14.8743 181.436 15.2324C180.175 15.5762 178.764 15.791 177.203 15.877C176.845 16.8079 176.473 17.696 176.086 18.541C175.714 19.3717 175.37 20.0951 175.055 20.7109C175.069 21.513 175.112 22.3867 175.184 23.332C175.27 24.263 175.427 25.1367 175.656 25.9531C175.9 26.7695 176.236 27.4499 176.666 27.9941C177.11 28.5384 177.69 28.8105 178.406 28.8105C179.008 28.8105 179.559 28.5599 180.061 28.0586C180.562 27.543 181.02 26.8984 181.436 26.125C181.865 25.3372 182.259 24.4779 182.617 23.5469C182.975 22.6159 183.312 21.735 183.627 20.9043L184.465 21.1191C184.264 21.6348 184.049 22.2148 183.82 22.8594C183.591 23.5039 183.333 24.1628 183.047 24.8359C182.76 25.4948 182.445 26.1393 182.102 26.7695C181.758 27.3854 181.378 27.944 180.963 28.4453C180.548 28.9323 180.089 29.3262 179.588 29.627C179.087 29.9134 178.542 30.0566 177.955 30.0566C177.325 30.0566 176.73 29.9134 176.172 29.627C175.628 29.3405 175.148 28.832 174.732 28.1016C174.331 27.3568 174.009 26.3542 173.766 25.0938C173.536 23.819 173.422 22.2005 173.422 20.2383C173.422 18.6628 173.508 17.1947 173.68 15.834C172.448 15.6764 171.417 15.4329 170.586 15.1035C169.741 14.7598 169.089 14.4303 168.631 14.1152L168.975 13.3203ZM178.084 7.69141C177.955 7.69141 177.762 7.82031 177.504 8.07812C177.246 8.33594 176.974 8.75846 176.688 9.3457C176.401 9.91862 176.122 10.6777 175.85 11.623C175.592 12.554 175.384 13.707 175.227 15.082H176.688C176.945 14.3659 177.167 13.6712 177.354 12.998C177.554 12.3249 177.726 11.7018 177.869 11.1289C178.012 10.5417 178.12 10.0189 178.191 9.56055C178.263 9.08789 178.299 8.70117 178.299 8.40039C178.299 7.92773 178.227 7.69141 178.084 7.69141ZM175.055 18.9922C175.298 18.4909 175.527 17.9896 175.742 17.4883C175.957 16.9727 176.165 16.4499 176.365 15.9199H175.141C175.112 16.3783 175.09 16.8652 175.076 17.3809C175.062 17.8822 175.055 18.4049 175.055 18.9492V18.9922Z" stroke="#F6D9DB" stroke-width="4" mask="url(#path-1-inside-1)"/>
<path class="save-the-animation" d="M188.354 31.1094C187.623 31.1094 186.921 30.9805 186.248 30.7227C185.575 30.4648 184.98 30.0781 184.465 29.5625C183.964 29.0326 183.562 28.3737 183.262 27.5859C182.961 26.7982 182.811 25.8743 182.811 24.8145C182.811 23.5254 182.997 22.3796 183.369 21.377C183.742 20.36 184.214 19.5078 184.787 18.8203C185.374 18.1185 186.026 17.5885 186.742 17.2305C187.458 16.8581 188.16 16.6719 188.848 16.6719C189.736 16.6719 190.438 16.9655 190.953 17.5527C191.483 18.14 191.748 18.8991 191.748 19.8301C191.748 20.6322 191.598 21.3626 191.297 22.0215C190.996 22.666 190.595 23.2246 190.094 23.6973C189.607 24.1556 189.041 24.5137 188.396 24.7715C187.766 25.0293 187.107 25.1582 186.42 25.1582C186.09 25.1582 185.775 25.1439 185.475 25.1152C185.188 25.0723 184.93 25.0293 184.701 24.9863C184.787 25.8743 184.959 26.6406 185.217 27.2852C185.475 27.9297 185.797 28.4596 186.184 28.875C186.57 29.2904 187 29.5983 187.473 29.7988C187.96 29.9993 188.461 30.0996 188.977 30.0996C189.621 30.0996 190.215 29.9421 190.76 29.627C191.304 29.3118 191.805 28.9036 192.264 28.4023C192.722 27.8867 193.137 27.2995 193.51 26.6406C193.896 25.9818 194.24 25.3158 194.541 24.6426C194.842 23.9551 195.107 23.2891 195.336 22.6445C195.579 21.9857 195.794 21.4056 195.98 20.9043L196.818 21.1191C196.632 21.5918 196.41 22.1647 196.152 22.8379C195.909 23.5111 195.622 24.2201 195.293 24.9648C194.964 25.6953 194.577 26.4329 194.133 27.1777C193.689 27.9082 193.188 28.5671 192.629 29.1543C192.07 29.7272 191.433 30.1999 190.717 30.5723C190.015 30.9303 189.227 31.1094 188.354 31.1094ZM188.891 17.5098C188.361 17.5098 187.838 17.6816 187.322 18.0254C186.821 18.3548 186.37 18.8132 185.969 19.4004C185.568 19.9876 185.238 20.6823 184.98 21.4844C184.737 22.2865 184.615 23.1458 184.615 24.0625C184.801 24.1341 185.059 24.1986 185.389 24.2559C185.732 24.2988 186.148 24.3203 186.635 24.3203C187.15 24.3203 187.659 24.2129 188.16 23.998C188.676 23.7689 189.134 23.4609 189.535 23.0742C189.951 22.6732 190.28 22.2005 190.523 21.6562C190.781 21.112 190.91 20.5176 190.91 19.873C190.91 19.5579 190.867 19.2572 190.781 18.9707C190.695 18.6842 190.566 18.4336 190.395 18.2188C190.223 18.0039 190.008 17.832 189.75 17.7031C189.507 17.5742 189.22 17.5098 188.891 17.5098Z" stroke="#F6D9DB" stroke-width="4" mask="url(#path-1-inside-1)"/>
</svg>
