<svg width="65" height="65" viewBox="0 0 65 65" fill="none" xmlns="http://www.w3.org/2000/svg">
<circle cx="32.5" cy="32.5" r="31.9" fill="white" stroke="#1B3644" stroke-width="1.2"/>
<path d="M17.1436 32.4648C16.8219 32.4648 16.4495 32.4521 16.0264 32.4268C15.6032 32.3929 15.1758 32.3421 14.7441 32.2744C14.7611 32.4945 14.7738 32.7145 14.7822 32.9346C14.7907 33.1546 14.7949 33.3704 14.7949 33.582C14.7949 34.5384 14.7103 35.4102 14.541 36.1973C14.3717 36.9844 14.1178 37.6572 13.7793 38.2158C13.4408 38.7744 13.0176 39.2061 12.5098 39.5107C12.0104 39.8239 11.4307 39.9805 10.7705 39.9805C10.2712 39.9805 9.70833 39.8874 9.08203 39.7012C8.46419 39.515 7.77018 39.1807 7 38.6982L7.25391 38.292C7.91406 38.6982 8.53613 38.9987 9.12012 39.1934C9.71257 39.388 10.2627 39.4854 10.7705 39.4854C11.3206 39.4854 11.7734 39.3838 12.1289 39.1807C12.4844 38.986 12.7637 38.7236 12.9668 38.3936C13.1784 38.0719 13.3223 37.7038 13.3984 37.2891C13.4831 36.8743 13.5254 36.4512 13.5254 36.0195C13.5254 35.4186 13.4831 34.7754 13.3984 34.0898C13.3223 33.4043 13.2503 32.6807 13.1826 31.9189C12.7933 31.7835 12.4759 31.627 12.2305 31.4492C11.985 31.263 11.8623 31.0472 11.8623 30.8018C11.8623 30.5648 11.9723 30.3617 12.1924 30.1924C12.4209 30.0146 12.7171 29.8792 13.0811 29.7861C13.0811 29.0583 13.1361 28.3473 13.2461 27.6533C13.3561 26.9508 13.4915 26.2907 13.6523 25.6729C13.8216 25.055 13.9993 24.4837 14.1855 23.959C14.3802 23.4342 14.5622 22.9857 14.7314 22.6133C14.9007 22.2324 15.0404 21.9362 15.1504 21.7246C15.2689 21.513 15.3324 21.4072 15.3408 21.4072L15.7852 21.623C15.7852 21.6315 15.7174 21.8008 15.582 22.1309C15.4466 22.4525 15.2985 22.9095 15.1377 23.502C14.9769 24.0944 14.8288 24.8053 14.6934 25.6348C14.5579 26.4642 14.4902 27.3867 14.4902 28.4023C14.4902 28.597 14.4902 28.8044 14.4902 29.0244C14.4902 29.236 14.4987 29.4476 14.5156 29.6592C15.4551 29.7015 16.2507 29.9131 16.9023 30.2939C17.5625 30.6748 18.1338 31.1995 18.6162 31.8682C19.3441 31.7158 20.0423 31.4577 20.7109 31.0938C21.388 30.7214 21.9805 30.2516 22.4883 29.6846C23.0046 29.1175 23.415 28.4574 23.7197 27.7041C24.0329 26.9508 24.1895 26.1172 24.1895 25.2031C24.1895 24.4753 24.0794 23.8278 23.8594 23.2607C23.6478 22.6852 23.36 22.1859 22.9961 21.7627C22.6406 21.3311 22.2259 20.9671 21.752 20.6709C21.2865 20.3747 20.804 20.1377 20.3047 19.96C19.8053 19.7738 19.306 19.6426 18.8066 19.5664C18.3158 19.4818 17.863 19.4395 17.4482 19.4395C16.2803 19.4395 15.2266 19.5283 14.2871 19.7061C13.3561 19.8838 12.5309 20.1081 11.8115 20.3789C11.0921 20.6497 10.4701 20.9417 9.94531 21.2549C9.42904 21.568 9.00163 21.86 8.66309 22.1309C8.32454 22.4017 8.07487 22.6302 7.91406 22.8164C7.75326 23.0026 7.67285 23.0957 7.67285 23.0957L7.25391 22.8164C7.2793 22.791 7.38086 22.6768 7.55859 22.4736C7.73633 22.2705 7.9987 22.0293 8.3457 21.75C8.70117 21.4622 9.14551 21.1533 9.67871 20.8232C10.2204 20.4932 10.8636 20.1927 11.6084 19.9219C12.3617 19.6426 13.2207 19.4098 14.1855 19.2236C15.1504 19.0374 16.238 18.9443 17.4482 18.9443C18.1423 18.9443 18.832 18.9993 19.5176 19.1094C20.2031 19.2109 20.8548 19.3717 21.4727 19.5918C22.0905 19.8034 22.6618 20.0785 23.1865 20.417C23.7197 20.7555 24.1768 21.1576 24.5576 21.623C24.9469 22.0801 25.2516 22.609 25.4717 23.21C25.6917 23.8024 25.8018 24.4668 25.8018 25.2031C25.8018 26.2611 25.6071 27.2005 25.2178 28.0215C24.8369 28.834 24.3249 29.5365 23.6816 30.1289C23.0469 30.7129 22.3148 31.1911 21.4854 31.5635C20.6644 31.9274 19.8138 32.1855 18.9336 32.3379C19.2298 32.7949 19.488 33.3027 19.708 33.8613C19.9704 34.4876 20.2074 35.1393 20.4189 35.8164C20.639 36.485 20.8675 37.141 21.1045 37.7842C21.3415 38.4274 21.5996 39.0368 21.8789 39.6123C22.1667 40.1878 22.501 40.6914 22.8818 41.123C23.2712 41.5632 23.724 41.9102 24.2402 42.1641C24.765 42.418 25.387 42.5449 26.1064 42.5449C26.6143 42.5449 27.1305 42.4307 27.6553 42.2021C28.1885 41.9821 28.7301 41.6224 29.2803 41.123L29.5977 41.4785C29.2845 41.7832 28.9629 42.071 28.6328 42.3418C28.3027 42.6211 27.9557 42.8623 27.5918 43.0654C27.2363 43.277 26.8597 43.4421 26.4619 43.5605C26.0641 43.6875 25.6367 43.751 25.1797 43.751C24.4941 43.751 23.8975 43.6536 23.3896 43.459C22.8903 43.2728 22.4544 43.0062 22.082 42.6592C21.7096 42.3206 21.3965 41.9186 21.1426 41.4531C20.8887 40.9876 20.6686 40.4798 20.4824 39.9297C20.2962 39.388 20.1312 38.8083 19.9873 38.1904C19.8519 37.5811 19.7165 36.9632 19.5811 36.3369C19.4118 35.5667 19.2214 34.8516 19.0098 34.1914C18.8066 33.5312 18.5485 32.9388 18.2354 32.4141C18.0492 32.4395 17.863 32.4564 17.6768 32.4648C17.499 32.4648 17.3213 32.4648 17.1436 32.4648ZM14.5664 30.1543C14.5833 30.4251 14.6045 30.7044 14.6299 30.9922C14.6637 31.2715 14.6934 31.5465 14.7188 31.8174C15.0404 31.8851 15.4085 31.9316 15.8232 31.957C16.238 31.9824 16.695 31.9951 17.1943 31.9951C17.3128 31.9951 17.4355 31.9951 17.5625 31.9951C17.6895 31.9951 17.8164 31.9867 17.9434 31.9697C17.554 31.4365 17.0885 31.0133 16.5469 30.7002C16.0137 30.3786 15.3535 30.1966 14.5664 30.1543ZM13.1318 31.373C13.1149 31.2038 13.1022 31.0303 13.0938 30.8525C13.0853 30.6663 13.0811 30.4844 13.0811 30.3066C12.861 30.3574 12.6833 30.4251 12.5479 30.5098C12.4209 30.5944 12.3574 30.6833 12.3574 30.7764C12.3574 30.8441 12.4167 30.9329 12.5352 31.043C12.6621 31.1445 12.861 31.2546 13.1318 31.373Z" fill="#1B3644"/>
<path d="M55.5615 21.1123C55.2992 21.2054 55.041 21.3112 54.7871 21.4297C54.5332 21.5397 54.2878 21.6582 54.0508 21.7852C54.5247 22.1914 54.9056 22.695 55.1934 23.2959C55.4896 23.8968 55.6377 24.5908 55.6377 25.3779C55.6377 26.0212 55.5531 26.6136 55.3838 27.1553C55.223 27.6969 54.9945 28.1624 54.6982 28.5518C54.402 28.9411 54.0508 29.2458 53.6445 29.4658C53.2467 29.6859 52.8109 29.7959 52.3369 29.7959C51.9899 29.7959 51.6471 29.7367 51.3086 29.6182C50.9701 29.4997 50.6654 29.3177 50.3945 29.0723C50.1322 28.8268 49.9163 28.5221 49.7471 28.1582C49.5863 27.7858 49.5059 27.3457 49.5059 26.8379C49.5059 26.2708 49.599 25.7334 49.7852 25.2256C49.9714 24.7093 50.221 24.2354 50.5342 23.8037C50.8558 23.3636 51.2282 22.9658 51.6514 22.6104C52.0745 22.2464 52.5189 21.929 52.9844 21.6582C52.7389 21.5397 52.4723 21.4466 52.1846 21.3789C51.9053 21.3027 51.6175 21.2646 51.3213 21.2646C50.805 21.2646 50.2549 21.362 49.6709 21.5566C49.0869 21.7513 48.5072 22.0433 47.9316 22.4326C47.3646 22.8219 46.8187 23.3044 46.2939 23.8799C45.7777 24.4469 45.3164 25.1113 44.9102 25.873C44.5124 26.6348 44.195 27.4854 43.958 28.4248C43.721 29.3643 43.6025 30.3926 43.6025 31.5098C43.6025 32.6439 43.7676 33.7188 44.0977 34.7344C44.4277 35.75 44.9102 36.6429 45.5449 37.4131C46.1797 38.1833 46.9583 38.7926 47.8809 39.2412C48.8118 39.6898 49.874 39.9141 51.0674 39.9141C51.7614 39.9141 52.4385 39.8083 53.0986 39.5967C53.7673 39.3936 54.3978 39.11 54.9902 38.7461C55.5827 38.3737 56.1286 37.9336 56.6279 37.4258C57.1273 36.9095 57.5589 36.3509 57.9229 35.75L58.3164 35.9785C57.9102 36.7318 57.4193 37.4046 56.8438 37.9971C56.2767 38.5895 55.6462 39.0931 54.9521 39.5078C54.2581 39.9225 53.5176 40.2399 52.7305 40.46C51.9434 40.68 51.1351 40.79 50.3057 40.79C49.1123 40.79 48.012 40.5785 47.0049 40.1553C45.9977 39.7406 45.126 39.1481 44.3896 38.3779C43.6618 37.6077 43.0905 36.681 42.6758 35.5977C42.2695 34.5059 42.0664 33.2913 42.0664 31.9541C42.0664 30.7438 42.1976 29.6309 42.46 28.6152C42.7223 27.5911 43.082 26.6644 43.5391 25.835C43.9961 25.0055 44.5251 24.2777 45.126 23.6514C45.7354 23.0166 46.3828 22.4876 47.0684 22.0645C47.7539 21.6328 48.4606 21.3112 49.1885 21.0996C49.9163 20.8796 50.6273 20.7695 51.3213 20.7695C51.7021 20.7695 52.0745 20.8288 52.4385 20.9473C52.8109 21.0573 53.1579 21.2096 53.4795 21.4043C53.818 21.2435 54.1566 21.1123 54.4951 21.0107C54.8337 20.9092 55.1637 20.8288 55.4854 20.7695L55.5615 21.1123ZM55.1426 25.3525C55.1426 24.6585 55.0029 24.0322 54.7236 23.4736C54.4528 22.9066 54.0804 22.4411 53.6064 22.0771C53.1917 22.348 52.8024 22.6611 52.4385 23.0166C52.083 23.3636 51.7741 23.7529 51.5117 24.1846C51.2493 24.6077 51.042 25.0732 50.8896 25.5811C50.7458 26.0804 50.6738 26.6178 50.6738 27.1934C50.6738 27.498 50.7119 27.7816 50.7881 28.0439C50.8727 28.2979 50.9912 28.5179 51.1436 28.7041C51.2959 28.8903 51.4821 29.0384 51.7021 29.1484C51.9222 29.25 52.1676 29.3008 52.4385 29.3008C52.8955 29.3008 53.2933 29.1696 53.6318 28.9072C53.9704 28.6449 54.2497 28.319 54.4697 27.9297C54.6982 27.5319 54.8675 27.1045 54.9775 26.6475C55.0876 26.182 55.1426 25.7503 55.1426 25.3525Z" fill="#1B3644"/>
<path d="M40.0869 34.249C40.0166 34.46 39.9023 34.6943 39.7441 34.9521C39.5918 35.21 39.3809 35.4531 39.1113 35.6816C38.8477 35.9102 38.5166 36.1006 38.1182 36.2529C37.7256 36.4053 37.2539 36.4814 36.7031 36.4814C36.2988 36.4814 35.915 36.4287 35.5518 36.3232C35.1943 36.2178 34.8574 36.0713 34.541 35.8838C34.0312 36.1826 33.4922 36.4258 32.9238 36.6133C32.3613 36.8008 31.7725 36.8945 31.1572 36.8945C30.5713 36.8945 30.0674 36.8154 29.6455 36.6572C29.2236 36.4932 28.875 36.2793 28.5996 36.0156C28.3301 35.752 28.1309 35.4531 28.002 35.1191C27.873 34.7852 27.8086 34.4453 27.8086 34.0996C27.8086 33.5723 27.9111 33.1094 28.1162 32.7109C28.3213 32.3125 28.5908 31.9639 28.9248 31.665C29.2588 31.3604 29.6396 31.0938 30.0674 30.8652C30.501 30.6309 30.9434 30.4141 31.3945 30.2148C31.3477 29.9395 31.3125 29.667 31.2891 29.3975C31.2715 29.1279 31.2627 28.8613 31.2627 28.5977C31.2627 28.0645 31.333 27.5869 31.4736 27.165C31.6143 26.7432 31.8076 26.3857 32.0537 26.0928C32.3057 25.7998 32.6016 25.5771 32.9414 25.4248C33.2871 25.2725 33.6592 25.1963 34.0576 25.1963C34.3213 25.1963 34.5498 25.2432 34.7432 25.3369C34.9424 25.4248 35.1064 25.542 35.2354 25.6885C35.3643 25.835 35.4609 25.999 35.5254 26.1807C35.5898 26.3564 35.6221 26.5322 35.6221 26.708C35.6221 27.1768 35.5254 27.5898 35.332 27.9473C35.1387 28.3047 34.8838 28.624 34.5674 28.9053C34.2568 29.1807 33.9023 29.4268 33.5039 29.6436C33.1055 29.8604 32.7012 30.0625 32.291 30.25C32.3848 30.7539 32.5107 31.249 32.6689 31.7354C32.8271 32.2217 33.0146 32.6816 33.2314 33.1152C33.4541 33.5488 33.7031 33.9502 33.9785 34.3193C34.2598 34.6826 34.5732 34.9932 34.9189 35.251C35.2939 34.9814 35.6367 34.6855 35.9473 34.3633C36.2578 34.041 36.5244 33.7158 36.7471 33.3877C36.9697 33.0537 37.1396 32.7314 37.2568 32.4209C37.3799 32.1104 37.4414 31.832 37.4414 31.5859C37.4414 31.4043 37.4209 31.252 37.3799 31.1289C37.3389 31.0059 37.2832 30.9062 37.2129 30.8301C37.1426 30.7539 37.0605 30.6982 36.9668 30.6631C36.873 30.6279 36.7734 30.6104 36.668 30.6104C36.5801 30.6104 36.4893 30.6279 36.3955 30.6631C36.3018 30.6982 36.2168 30.751 36.1406 30.8213C36.0703 30.8857 36.0117 30.9707 35.9648 31.0762C35.918 31.1758 35.8945 31.2959 35.8945 31.4365C35.8945 31.5479 35.9238 31.6709 35.9824 31.8057C36.0469 31.9346 36.1611 32.0342 36.3252 32.1045L36.1758 32.3945C36.0586 32.3418 35.9619 32.2803 35.8857 32.21C35.8096 32.1338 35.748 32.0518 35.7012 31.9639C35.6543 31.876 35.6191 31.7881 35.5957 31.7002C35.5781 31.6064 35.5693 31.5186 35.5693 31.4365C35.5693 31.2432 35.6074 31.0762 35.6836 30.9355C35.7656 30.7891 35.8652 30.6689 35.9824 30.5752C36.1055 30.4756 36.2373 30.4023 36.3779 30.3555C36.5186 30.3086 36.6504 30.2852 36.7734 30.2852C37.125 30.2852 37.4062 30.3936 37.6172 30.6104C37.834 30.8271 37.9424 31.1377 37.9424 31.542C37.9424 31.7998 37.875 32.0928 37.7402 32.4209C37.6113 32.749 37.4268 33.0889 37.1865 33.4404C36.9463 33.792 36.6562 34.1436 36.3164 34.4951C35.9766 34.8467 35.6016 35.1719 35.1914 35.4707C35.4902 35.6582 35.8037 35.8047 36.1318 35.9102C36.4658 36.0156 36.8232 36.0684 37.2041 36.0684C37.5791 36.0684 37.9102 36.0039 38.1973 35.875C38.4902 35.7461 38.7422 35.585 38.9531 35.3916C39.1641 35.1982 39.3369 34.9902 39.4717 34.7676C39.6064 34.5391 39.7031 34.3281 39.7617 34.1348L40.0869 34.249ZM31.6055 36.3848C32.0801 36.3848 32.5371 36.3232 32.9766 36.2002C33.416 36.0771 33.835 35.9043 34.2334 35.6816C33.8643 35.4121 33.5303 35.0928 33.2314 34.7236C32.9326 34.3486 32.666 33.9414 32.4316 33.502C32.2031 33.0625 32.0068 32.5996 31.8428 32.1133C31.6846 31.6211 31.5586 31.126 31.4648 30.6279C31.0664 30.8213 30.7031 31.0264 30.375 31.2432C30.0527 31.4541 29.7773 31.6914 29.5488 31.9551C29.3203 32.2129 29.1445 32.5029 29.0215 32.8252C28.8984 33.1475 28.8369 33.5137 28.8369 33.9238C28.8369 34.3574 28.9189 34.7295 29.083 35.04C29.2529 35.3447 29.4697 35.5996 29.7334 35.8047C29.9971 36.0039 30.293 36.1504 30.6211 36.2441C30.9492 36.3379 31.2773 36.3848 31.6055 36.3848ZM32.0801 28.0176C32.0801 28.3164 32.0889 28.6211 32.1064 28.9316C32.1299 29.2363 32.168 29.5439 32.2207 29.8545C32.6133 29.6787 32.9941 29.4941 33.3633 29.3008C33.7324 29.1016 34.0605 28.8818 34.3477 28.6416C34.6348 28.3955 34.8633 28.123 35.0332 27.8242C35.209 27.5195 35.2969 27.1768 35.2969 26.7959C35.2969 26.6377 35.2705 26.4824 35.2178 26.3301C35.1709 26.1777 35.0947 26.04 34.9893 25.917C34.8896 25.7939 34.7607 25.6973 34.6025 25.627C34.4502 25.5508 34.2686 25.5127 34.0576 25.5127C33.7764 25.5127 33.5127 25.5771 33.2666 25.7061C33.0264 25.835 32.8184 26.0137 32.6426 26.2422C32.4668 26.4648 32.3291 26.7285 32.2295 27.0332C32.1299 27.3379 32.0801 27.666 32.0801 28.0176Z" fill="#1B3644"/>
</svg>
