<svg width="32" height="32" viewBox="0 0 32 32" fill="none" xmlns="http://www.w3.org/2000/svg">
<circle cx="16" cy="16" r="15.4" fill="#1B3644" stroke="#DFC189" stroke-width="1.2"/>
<path d="M8.2915 16.6582C8.15544 16.6582 7.99788 16.6528 7.81885 16.6421C7.63981 16.6278 7.45898 16.6063 7.27637 16.5776C7.28353 16.6707 7.2889 16.7638 7.29248 16.8569C7.29606 16.95 7.29785 17.0413 7.29785 17.1309C7.29785 17.5355 7.26204 17.9043 7.19043 18.2373C7.11882 18.5703 7.01139 18.855 6.86816 19.0913C6.72493 19.3276 6.5459 19.5103 6.33105 19.6392C6.11979 19.7716 5.87451 19.8379 5.59521 19.8379C5.38395 19.8379 5.14583 19.7985 4.88086 19.7197C4.61947 19.641 4.32585 19.4995 4 19.2954L4.10742 19.1235C4.38672 19.2954 4.6499 19.4225 4.89697 19.5049C5.14762 19.5872 5.38037 19.6284 5.59521 19.6284C5.82796 19.6284 6.01953 19.5854 6.16992 19.4995C6.32031 19.4172 6.43848 19.3062 6.52441 19.1665C6.61393 19.0304 6.6748 18.8747 6.70703 18.6992C6.74284 18.5238 6.76074 18.3447 6.76074 18.1621C6.76074 17.9079 6.74284 17.6357 6.70703 17.3457C6.6748 17.0557 6.64437 16.7495 6.61572 16.4272C6.45101 16.37 6.31673 16.3037 6.21289 16.2285C6.10905 16.1497 6.05713 16.0584 6.05713 15.9546C6.05713 15.8543 6.10368 15.7684 6.19678 15.6968C6.29346 15.6216 6.41878 15.5643 6.57275 15.5249C6.57275 15.217 6.59603 14.9162 6.64258 14.6226C6.68913 14.3254 6.74642 14.0461 6.81445 13.7847C6.88607 13.5233 6.96126 13.2816 7.04004 13.0596C7.1224 12.8376 7.19938 12.6478 7.271 12.4902C7.34261 12.3291 7.40169 12.2038 7.44824 12.1143C7.49837 12.0247 7.52523 11.98 7.52881 11.98L7.7168 12.0713C7.7168 12.0749 7.68815 12.1465 7.63086 12.2861C7.57357 12.4222 7.5109 12.6156 7.44287 12.8662C7.37484 13.1169 7.31217 13.4176 7.25488 13.7686C7.19759 14.1195 7.16895 14.5098 7.16895 14.9395C7.16895 15.0218 7.16895 15.1095 7.16895 15.2026C7.16895 15.2922 7.17253 15.3817 7.17969 15.4712C7.57715 15.4891 7.91374 15.5786 8.18945 15.7397C8.46875 15.9009 8.71045 16.1229 8.91455 16.4058C9.22249 16.3413 9.5179 16.2321 9.80078 16.0781C10.0872 15.9206 10.3379 15.7218 10.5527 15.4819C10.7712 15.242 10.9448 14.9627 11.0737 14.644C11.2062 14.3254 11.2725 13.9727 11.2725 13.5859C11.2725 13.278 11.2259 13.0041 11.1328 12.7642C11.0433 12.5207 10.9215 12.3094 10.7676 12.1304C10.6172 11.9478 10.4417 11.7938 10.2412 11.6685C10.0443 11.5431 9.84017 11.4429 9.62891 11.3677C9.41764 11.2889 9.20638 11.2334 8.99512 11.2012C8.78743 11.1654 8.59587 11.1475 8.42041 11.1475C7.92627 11.1475 7.48047 11.1851 7.08301 11.2603C6.68913 11.3354 6.34001 11.4303 6.03564 11.5449C5.73128 11.6595 5.4681 11.783 5.24609 11.9155C5.02767 12.048 4.84684 12.1715 4.70361 12.2861C4.56038 12.4007 4.45475 12.4974 4.38672 12.5762C4.31868 12.6549 4.28467 12.6943 4.28467 12.6943L4.10742 12.5762C4.11816 12.5654 4.16113 12.5171 4.23633 12.4312C4.31152 12.3452 4.42253 12.2432 4.56934 12.125C4.71973 12.0033 4.90771 11.8726 5.1333 11.7329C5.36247 11.5933 5.6346 11.4661 5.94971 11.3516C6.26839 11.2334 6.63184 11.1349 7.04004 11.0562C7.44824 10.9774 7.90837 10.938 8.42041 10.938C8.71403 10.938 9.00586 10.9613 9.2959 11.0078C9.58594 11.0508 9.86165 11.1188 10.123 11.2119C10.3844 11.3014 10.6261 11.4178 10.8481 11.561C11.0737 11.7043 11.2671 11.8743 11.4282 12.0713C11.5929 12.2646 11.7218 12.4884 11.8149 12.7427C11.908 12.9933 11.9546 13.2744 11.9546 13.5859C11.9546 14.0335 11.8722 14.431 11.7075 14.7783C11.5464 15.1221 11.3298 15.4193 11.0576 15.6699C10.7891 15.917 10.4793 16.1193 10.1284 16.2769C9.78109 16.4308 9.42122 16.54 9.04883 16.6045C9.17415 16.7979 9.28337 17.0127 9.37646 17.249C9.48747 17.514 9.58773 17.7897 9.67725 18.0762C9.77035 18.359 9.86702 18.6366 9.96729 18.9087C10.0675 19.1808 10.1768 19.4386 10.2949 19.6821C10.4167 19.9256 10.5581 20.1387 10.7192 20.3213C10.884 20.5075 11.0755 20.6543 11.2939 20.7617C11.516 20.8691 11.7791 20.9229 12.0835 20.9229C12.2983 20.9229 12.5168 20.8745 12.7388 20.7778C12.9644 20.6847 13.1935 20.5326 13.4263 20.3213L13.5605 20.4717C13.4281 20.6006 13.292 20.7223 13.1523 20.8369C13.0127 20.9551 12.8659 21.0571 12.7119 21.1431C12.5615 21.2326 12.4022 21.3024 12.2339 21.3525C12.0656 21.4062 11.8848 21.4331 11.6914 21.4331C11.4014 21.4331 11.1489 21.3919 10.9341 21.3096C10.7228 21.2308 10.5384 21.118 10.3809 20.9712C10.2233 20.828 10.0908 20.6579 9.9834 20.4609C9.87598 20.264 9.78288 20.0492 9.7041 19.8164C9.62533 19.5872 9.5555 19.342 9.49463 19.0806C9.43734 18.8228 9.38005 18.5614 9.32275 18.2964C9.25114 17.9705 9.17057 17.668 9.08105 17.3887C8.99512 17.1094 8.8859 16.8587 8.75342 16.6367C8.67464 16.6475 8.59587 16.6546 8.51709 16.6582C8.44189 16.6582 8.3667 16.6582 8.2915 16.6582ZM7.20117 15.6807C7.20833 15.7952 7.21729 15.9134 7.22803 16.0352C7.24235 16.1533 7.25488 16.2697 7.26562 16.3843C7.40169 16.4129 7.55745 16.4326 7.73291 16.4434C7.90837 16.4541 8.10173 16.4595 8.31299 16.4595C8.36312 16.4595 8.41504 16.4595 8.46875 16.4595C8.52246 16.4595 8.57617 16.4559 8.62988 16.4487C8.46517 16.2231 8.26823 16.0441 8.03906 15.9116C7.81348 15.7756 7.53418 15.6986 7.20117 15.6807ZM6.59424 16.1963C6.58708 16.1247 6.58171 16.0513 6.57812 15.9761C6.57454 15.8973 6.57275 15.8203 6.57275 15.7451C6.47965 15.7666 6.40446 15.7952 6.34717 15.8311C6.29346 15.8669 6.2666 15.9045 6.2666 15.9438C6.2666 15.9725 6.29167 16.0101 6.3418 16.0566C6.39551 16.0996 6.47965 16.1462 6.59424 16.1963Z" fill="#DFC189"/>
<path d="M25.7035 11.8893C25.5925 11.9287 25.4833 11.9734 25.3759 12.0235C25.2684 12.0701 25.1646 12.1202 25.0643 12.1739C25.2649 12.3458 25.426 12.5589 25.5477 12.8131C25.6731 13.0673 25.7357 13.361 25.7357 13.694C25.7357 13.9661 25.6999 14.2167 25.6283 14.4459C25.5603 14.6751 25.4636 14.872 25.3383 15.0367C25.2129 15.2014 25.0643 15.3304 24.8925 15.4235C24.7242 15.5165 24.5398 15.5631 24.3392 15.5631C24.1924 15.5631 24.0474 15.538 23.9042 15.4879C23.761 15.4378 23.632 15.3608 23.5175 15.2569C23.4065 15.1531 23.3152 15.0242 23.2435 14.8702C23.1755 14.7127 23.1415 14.5265 23.1415 14.3116C23.1415 14.0717 23.1809 13.8443 23.2597 13.6295C23.3384 13.4111 23.4441 13.2106 23.5765 13.0279C23.7126 12.8417 23.8702 12.6735 24.0492 12.5231C24.2282 12.3691 24.4162 12.2348 24.6132 12.1202C24.5093 12.0701 24.3965 12.0307 24.2748 12.0021C24.1566 11.9698 24.0349 11.9537 23.9096 11.9537C23.6911 11.9537 23.4584 11.9949 23.2113 12.0773C22.9642 12.1596 22.719 12.2832 22.4755 12.4479C22.2356 12.6126 22.0046 12.8167 21.7826 13.0602C21.5642 13.3001 21.369 13.5812 21.1972 13.9034C21.0289 14.2257 20.8946 14.5856 20.7943 14.983C20.6941 15.3805 20.6439 15.8155 20.6439 16.2882C20.6439 16.768 20.7138 17.2228 20.8534 17.6525C20.9931 18.0821 21.1972 18.4599 21.4657 18.7858C21.7343 19.1116 22.0637 19.3694 22.454 19.5592C22.8479 19.749 23.2973 19.8439 23.8021 19.8439C24.0958 19.8439 24.3822 19.7991 24.6615 19.7096C24.9444 19.6236 25.2112 19.5037 25.4618 19.3497C25.7125 19.1922 25.9434 19.006 26.1547 18.7911C26.3659 18.5727 26.5486 18.3364 26.7025 18.0821L26.869 18.1788C26.6972 18.4975 26.4895 18.7822 26.246 19.0328C26.0061 19.2835 25.7393 19.4965 25.4457 19.672C25.1521 19.8474 24.8388 19.9817 24.5057 20.0748C24.1727 20.1679 23.8308 20.2145 23.4799 20.2145C22.975 20.2145 22.5095 20.1249 22.0834 19.9459C21.6573 19.7705 21.2885 19.5198 20.9769 19.194C20.669 18.8681 20.4273 18.476 20.2518 18.0177C20.08 17.5558 19.994 17.0419 19.994 16.4762C19.994 15.9641 20.0495 15.4933 20.1605 15.0636C20.2715 14.6303 20.4237 14.2382 20.6171 13.8873C20.8104 13.5364 21.0342 13.2285 21.2885 12.9635C21.5463 12.6949 21.8202 12.4711 22.1102 12.2921C22.4003 12.1095 22.6993 11.9734 23.0072 11.8839C23.3152 11.7908 23.6159 11.7443 23.9096 11.7443C24.0707 11.7443 24.2282 11.7693 24.3822 11.8194C24.5398 11.866 24.6866 11.9304 24.8226 12.0128C24.9659 11.9448 25.1091 11.8893 25.2523 11.8463C25.3956 11.8033 25.5352 11.7693 25.6713 11.7443L25.7035 11.8893ZM25.5263 13.6832C25.5263 13.3896 25.4672 13.1246 25.349 12.8883C25.2344 12.6484 25.0769 12.4514 24.8764 12.2975C24.7009 12.4121 24.5362 12.5445 24.3822 12.6949C24.2318 12.8417 24.1011 13.0065 23.9901 13.1891C23.8791 13.3681 23.7914 13.5651 23.7269 13.7799C23.6661 13.9912 23.6356 14.2185 23.6356 14.462C23.6356 14.5909 23.6517 14.7109 23.684 14.8219C23.7198 14.9293 23.7699 15.0224 23.8344 15.1012C23.8988 15.18 23.9776 15.2426 24.0707 15.2892C24.1638 15.3321 24.2676 15.3536 24.3822 15.3536C24.5756 15.3536 24.7439 15.2981 24.8871 15.1871C25.0303 15.0761 25.1485 14.9383 25.2416 14.7735C25.3383 14.6053 25.4099 14.4244 25.4564 14.2311C25.503 14.0341 25.5263 13.8515 25.5263 13.6832Z" fill="#DFC189"/>
<path d="M19.405 18.3674C19.3698 18.4728 19.3127 18.59 19.2336 18.7189C19.1574 18.8478 19.052 18.9694 18.9172 19.0837C18.7854 19.1979 18.6198 19.2931 18.4206 19.3693C18.2243 19.4455 17.9885 19.4836 17.7131 19.4836C17.511 19.4836 17.3191 19.4572 17.1374 19.4045C16.9587 19.3517 16.7902 19.2785 16.632 19.1847C16.3772 19.3342 16.1076 19.4557 15.8235 19.5495C15.5422 19.6432 15.2478 19.6901 14.9402 19.6901C14.6472 19.6901 14.3952 19.6506 14.1843 19.5715C13.9734 19.4894 13.799 19.3825 13.6613 19.2507C13.5266 19.1188 13.427 18.9694 13.3625 18.8024C13.2981 18.6354 13.2658 18.4655 13.2658 18.2927C13.2658 18.029 13.3171 17.7975 13.4196 17.5983C13.5222 17.3991 13.6569 17.2248 13.8239 17.0754C13.9909 16.923 14.1814 16.7897 14.3952 16.6755C14.612 16.5583 14.8332 16.4499 15.0588 16.3503C15.0354 16.2126 15.0178 16.0764 15.0061 15.9416C14.9973 15.8068 14.9929 15.6735 14.9929 15.5417C14.9929 15.2751 15.028 15.0363 15.0984 14.8254C15.1687 14.6144 15.2653 14.4357 15.3884 14.2892C15.5144 14.1428 15.6623 14.0314 15.8322 13.9553C16.0051 13.8791 16.1911 13.841 16.3903 13.841C16.5222 13.841 16.6364 13.8644 16.7331 13.9113C16.8327 13.9553 16.9148 14.0139 16.9792 14.0871C17.0437 14.1603 17.092 14.2424 17.1242 14.3332C17.1565 14.4211 17.1726 14.509 17.1726 14.5969C17.1726 14.8312 17.1242 15.0378 17.0276 15.2165C16.9309 15.3952 16.8034 15.5549 16.6452 15.6955C16.49 15.8332 16.3127 15.9562 16.1135 16.0646C15.9143 16.173 15.7121 16.2741 15.507 16.3679C15.5539 16.6198 15.6169 16.8674 15.696 17.1105C15.7751 17.3537 15.8689 17.5837 15.9773 17.8005C16.0886 18.0173 16.2131 18.218 16.3508 18.4025C16.4914 18.5842 16.6482 18.7394 16.821 18.8683C17.0085 18.7336 17.1799 18.5856 17.3352 18.4245C17.4904 18.2634 17.6237 18.1008 17.7351 17.9367C17.8464 17.7697 17.9314 17.6086 17.99 17.4533C18.0515 17.298 18.0822 17.1589 18.0822 17.0358C18.0822 16.945 18.072 16.8688 18.0515 16.8073C18.031 16.7458 18.0031 16.696 17.968 16.6579C17.9328 16.6198 17.8918 16.592 17.8449 16.5744C17.7981 16.5568 17.7483 16.548 17.6955 16.548C17.6516 16.548 17.6062 16.5568 17.5593 16.5744C17.5124 16.592 17.4699 16.6183 17.4319 16.6535C17.3967 16.6857 17.3674 16.7282 17.344 16.7809C17.3205 16.8307 17.3088 16.8908 17.3088 16.9611C17.3088 17.0168 17.3235 17.0783 17.3527 17.1457C17.385 17.2101 17.4421 17.2599 17.5241 17.2951L17.4494 17.4401C17.3908 17.4138 17.3425 17.383 17.3044 17.3478C17.2663 17.3097 17.2356 17.2687 17.2121 17.2248C17.1887 17.1808 17.1711 17.1369 17.1594 17.093C17.1506 17.0461 17.1462 17.0021 17.1462 16.9611C17.1462 16.8644 17.1652 16.7809 17.2033 16.7106C17.2444 16.6374 17.2942 16.5773 17.3527 16.5305C17.4143 16.4806 17.4802 16.444 17.5505 16.4206C17.6208 16.3972 17.6867 16.3854 17.7483 16.3854C17.924 16.3854 18.0647 16.4396 18.1701 16.548C18.2785 16.6564 18.3327 16.8117 18.3327 17.0139C18.3327 17.1428 18.299 17.2892 18.2317 17.4533C18.1672 17.6174 18.0749 17.7873 17.9548 17.9631C17.8347 18.1389 17.6897 18.3146 17.5197 18.4904C17.3498 18.6662 17.1623 18.8288 16.9572 18.9782C17.1067 19.072 17.2634 19.1452 17.4275 19.1979C17.5944 19.2507 17.7732 19.277 17.9636 19.277C18.1511 19.277 18.3166 19.2448 18.4602 19.1804C18.6067 19.1159 18.7326 19.0353 18.8381 18.9387C18.9436 18.842 19.03 18.738 19.0974 18.6266C19.1648 18.5124 19.2131 18.4069 19.2424 18.3102L19.405 18.3674ZM15.1643 19.4352C15.4016 19.4352 15.6301 19.4045 15.8498 19.343C16.0695 19.2814 16.279 19.195 16.4782 19.0837C16.2937 18.9489 16.1267 18.7892 15.9773 18.6047C15.8278 18.4172 15.6945 18.2136 15.5774 17.9938C15.4631 17.7741 15.365 17.5427 15.2829 17.2995C15.2038 17.0534 15.1408 16.8058 15.094 16.5568C14.8947 16.6535 14.7131 16.756 14.549 16.8644C14.3879 16.9699 14.2502 17.0886 14.136 17.2204C14.0217 17.3493 13.9338 17.4943 13.8723 17.6555C13.8108 17.8166 13.78 17.9997 13.78 18.2048C13.78 18.4216 13.821 18.6076 13.903 18.7629C13.988 18.9152 14.0964 19.0427 14.2282 19.1452C14.3601 19.2448 14.508 19.3181 14.6721 19.3649C14.8361 19.4118 15.0002 19.4352 15.1643 19.4352ZM15.4016 15.2516C15.4016 15.4011 15.406 15.5534 15.4148 15.7087C15.4265 15.861 15.4455 16.0148 15.4719 16.1701C15.6682 16.0822 15.8586 15.9899 16.0432 15.8932C16.2277 15.7936 16.3918 15.6838 16.5354 15.5637C16.6789 15.4406 16.7932 15.3044 16.8781 15.155C16.966 15.0026 17.01 14.8312 17.01 14.6408C17.01 14.5617 16.9968 14.4841 16.9704 14.4079C16.947 14.3317 16.9089 14.2629 16.8562 14.2014C16.8064 14.1398 16.7419 14.0915 16.6628 14.0563C16.5866 14.0182 16.4958 13.9992 16.3903 13.9992C16.2497 13.9992 16.1179 14.0314 15.9948 14.0959C15.8747 14.1603 15.7707 14.2497 15.6828 14.3639C15.5949 14.4753 15.5261 14.6071 15.4763 14.7595C15.4265 14.9118 15.4016 15.0759 15.4016 15.2516Z" fill="#DFC189"/>
</svg>
