<svg width="198" height="37" viewBox="0 0 198 37" fill="none" xmlns="http://www.w3.org/2000/svg">
<path d="M5.33789 9.69922C5.33789 10.5013 5.5026 11.2246 5.83203 11.8691C6.16146 12.4993 6.60547 13.0794 7.16406 13.6094C7.72266 14.125 8.37435 14.6048 9.11914 15.0488C9.87826 15.4785 10.6803 15.901 11.5254 16.3164C12.3704 16.7174 13.237 17.1185 14.125 17.5195C15.0273 17.9062 15.901 18.3216 16.7461 18.7656C17.5911 19.1953 18.3861 19.668 19.1309 20.1836C19.89 20.6849 20.5488 21.2507 21.1074 21.8809C21.666 22.4967 22.11 23.1914 22.4395 23.9648C22.7689 24.724 22.9336 25.5833 22.9336 26.543C22.9336 28.2904 22.6042 29.8086 21.9453 31.0977C21.2865 32.3724 20.4056 33.4251 19.3027 34.2559C18.1999 35.1009 16.918 35.724 15.457 36.125C13.9961 36.5404 12.4707 36.748 10.8809 36.748C9.47721 36.748 8.15234 36.5618 6.90625 36.1895C5.66016 35.8314 4.56445 35.3229 3.61914 34.6641C2.67383 34.0195 1.92188 33.2389 1.36328 32.3223C0.81901 31.4199 0.546875 30.4316 0.546875 29.3574C0.546875 28.4121 0.690104 27.61 0.976562 26.9512C1.27734 26.278 1.59961 25.7266 1.94336 25.2969C2.30143 24.8672 2.63802 24.5521 2.95312 24.3516C3.26823 24.151 3.44727 24.0436 3.49023 24.0293L3.96289 25.0391C3.93424 25.0534 3.79818 25.1465 3.55469 25.3184C3.3112 25.4759 3.04622 25.7266 2.75977 26.0703C2.48763 26.4141 2.22982 26.8581 1.98633 27.4023C1.75716 27.9323 1.64258 28.584 1.64258 29.3574C1.64258 30.1309 1.78581 30.8255 2.07227 31.4414C2.37305 32.043 2.76693 32.5729 3.25391 33.0312C3.75521 33.4896 4.32096 33.8835 4.95117 34.2129C5.5957 34.5423 6.26172 34.8073 6.94922 35.0078C7.63672 35.2227 8.32422 35.373 9.01172 35.459C9.69922 35.5592 10.3366 35.6094 10.9238 35.6094C12.4421 35.6094 13.8171 35.416 15.0488 35.0293C16.2806 34.6569 17.3262 34.1341 18.1855 33.4609C19.0592 32.8021 19.7324 32.0358 20.2051 31.1621C20.6777 30.2741 20.9141 29.3216 20.9141 28.3047C20.9141 27.1589 20.6706 26.1706 20.1836 25.3398C19.6966 24.5091 19.0521 23.7786 18.25 23.1484C17.4479 22.5039 16.5312 21.931 15.5 21.4297C14.4831 20.9141 13.4375 20.4128 12.3633 19.9258C11.3034 19.4388 10.2578 18.9303 9.22656 18.4004C8.20964 17.8561 7.30013 17.2331 6.49805 16.5312C5.69596 15.8294 5.05143 15.0202 4.56445 14.1035C4.07747 13.1725 3.83398 12.0697 3.83398 10.7949C3.83398 9.37695 4.07031 8.08073 4.54297 6.90625C5.02995 5.73177 5.6888 4.72201 6.51953 3.87695C7.36458 3.01758 8.35286 2.35872 9.48438 1.90039C10.6159 1.42773 11.8405 1.19141 13.1582 1.19141C14.4902 1.19141 15.6576 1.34896 16.6602 1.66406C17.6628 1.96484 18.5007 2.39453 19.1738 2.95312C19.8613 3.4974 20.3698 4.15625 20.6992 4.92969C21.043 5.70312 21.2148 6.55534 21.2148 7.48633C21.2148 8.24544 21.1217 8.99023 20.9355 9.7207C20.7637 10.4368 20.5703 11.0814 20.3555 11.6543C20.1406 12.2272 19.9401 12.6927 19.7539 13.0508C19.5677 13.4089 19.4674 13.6094 19.4531 13.6523L18.4863 13.1152C18.4863 13.1009 18.5651 12.929 18.7227 12.5996C18.8945 12.2702 19.0807 11.8405 19.2812 11.3105C19.4818 10.7806 19.6608 10.1862 19.8184 9.52734C19.9902 8.85417 20.0762 8.17383 20.0762 7.48633C20.0762 6.71289 19.9329 6.01107 19.6465 5.38086C19.3743 4.73633 18.9518 4.19206 18.3789 3.74805C17.806 3.30404 17.0827 2.96029 16.209 2.7168C15.3353 2.47331 14.304 2.35156 13.1152 2.35156C12.0124 2.35156 10.9883 2.53776 10.043 2.91016C9.09766 3.26823 8.27409 3.77669 7.57227 4.43555C6.88477 5.0944 6.34049 5.875 5.93945 6.77734C5.53841 7.66536 5.33789 8.63932 5.33789 9.69922ZM43.4727 21.709C42.8854 23.2988 42.3483 24.6309 41.8613 25.7051C41.3887 26.7793 40.9232 27.6458 40.4648 28.3047C40.0208 28.9635 39.5768 29.4362 39.1328 29.7227C38.6888 30.0091 38.2018 30.1523 37.6719 30.1523C37.0273 30.1523 36.4759 29.9303 36.0176 29.4863C35.5592 29.028 35.2728 28.3262 35.1582 27.3809C34.6999 28.3691 34.1055 29.1784 33.375 29.8086C32.6445 30.4245 31.7279 30.7324 30.625 30.7324C30.0378 30.7324 29.472 30.625 28.9277 30.4102C28.3978 30.1953 27.9251 29.8659 27.5098 29.4219C27.0944 28.9635 26.7578 28.3906 26.5 27.7031C26.2565 27.0156 26.1348 26.2064 26.1348 25.2754C26.1348 24.3301 26.2493 23.4421 26.4785 22.6113C26.722 21.7806 27.0371 21.0215 27.4238 20.334C27.8105 19.6322 28.2546 19.0091 28.7559 18.4648C29.2715 17.9206 29.8014 17.4622 30.3457 17.0898C30.89 16.7174 31.4342 16.431 31.9785 16.2305C32.5228 16.0299 33.0241 15.9297 33.4824 15.9297C33.8835 15.9297 34.2702 15.9798 34.6426 16.0801C35.015 16.1803 35.3444 16.3451 35.6309 16.5742C35.9316 16.7891 36.168 17.0827 36.3398 17.4551C36.526 17.8275 36.6191 18.293 36.6191 18.8516C36.6191 19.5104 36.4902 20.0833 36.2324 20.5703C35.9889 21.0573 35.6882 21.4655 35.3301 21.7949C34.9863 22.1243 34.6283 22.3893 34.2559 22.5898C33.8978 22.7904 33.6113 22.9336 33.3965 23.0195L33.1387 22.1816C33.1816 22.1816 33.3392 22.1243 33.6113 22.0098C33.8978 21.8952 34.1914 21.709 34.4922 21.4512C34.8073 21.179 35.0938 20.8353 35.3516 20.4199C35.6094 20.0046 35.7383 19.4961 35.7383 18.8945C35.7383 18.207 35.5449 17.6842 35.1582 17.3262C34.7715 16.9538 34.2773 16.7676 33.6758 16.7676C33.2174 16.7676 32.6803 16.9323 32.0645 17.2617C31.4486 17.5911 30.8542 18.1068 30.2812 18.8086C29.7227 19.5104 29.2428 20.3984 28.8418 21.4727C28.4551 22.5469 28.2617 23.8288 28.2617 25.3184C28.2617 26.7936 28.5195 27.918 29.0352 28.6914C29.5651 29.4648 30.2741 29.8516 31.1621 29.8516C31.6061 29.8516 32.0286 29.7298 32.4297 29.4863C32.8451 29.2285 33.2246 28.8919 33.5684 28.4766C33.9121 28.0612 34.2201 27.5814 34.4922 27.0371C34.7643 26.4785 35.0007 25.9056 35.2012 25.3184C35.2012 24.86 35.2513 24.3229 35.3516 23.707C35.4661 23.0768 35.638 22.4395 35.8672 21.7949L37.1777 22.2246C37.1061 22.4108 37.0345 22.6543 36.9629 22.9551C36.8913 23.2559 36.8197 23.5853 36.748 23.9434C36.6908 24.3014 36.6406 24.6738 36.5977 25.0605C36.5547 25.4329 36.5332 25.7982 36.5332 26.1562C36.5332 27.2734 36.6406 28.0469 36.8555 28.4766C37.0846 28.8919 37.4714 29.0996 38.0156 29.0996C38.3307 29.0996 38.6387 28.985 38.9395 28.7559C39.2546 28.5267 39.5911 28.1257 39.9492 27.5527C40.3073 26.9798 40.7012 26.2064 41.1309 25.2324C41.5605 24.2441 42.0618 22.998 42.6348 21.4941L43.4727 21.709ZM57.8027 21.709C57.3587 22.7689 56.9362 23.6784 56.5352 24.4375C56.1484 25.1966 55.7617 25.8268 55.375 26.3281C54.9883 26.8151 54.5872 27.1803 54.1719 27.4238C53.7708 27.653 53.334 27.7676 52.8613 27.7676C52.2168 27.7676 51.6654 27.5671 51.207 27.166C50.763 26.7507 50.498 26.235 50.4121 25.6191C50.0111 26.5501 49.5885 27.388 49.1445 28.1328C48.7005 28.8633 48.2565 29.4863 47.8125 30.002C47.3685 30.5176 46.9388 30.9186 46.5234 31.2051C46.1081 31.4772 45.7428 31.6133 45.4277 31.6133C45.1699 31.6133 44.8477 31.5059 44.4609 31.291C44.0885 31.0762 43.7305 30.7181 43.3867 30.2168C43.043 29.7155 42.7493 29.0566 42.5059 28.2402C42.2624 27.4095 42.1406 26.3926 42.1406 25.1895C42.1406 24.4017 42.1908 23.6784 42.291 23.0195C42.4056 22.3464 42.5273 21.7663 42.6562 21.2793C42.8138 20.7064 42.9928 20.1908 43.1934 19.7324L44.0312 19.8184C43.9596 20.4342 43.9095 21.0358 43.8809 21.623C43.8665 22.196 43.8594 22.7474 43.8594 23.2773C43.8594 24.4661 43.9167 25.526 44.0312 26.457C44.1458 27.388 44.2819 28.1758 44.4395 28.8203C44.6113 29.4505 44.7975 29.9375 44.998 30.2812C45.1986 30.6107 45.3848 30.7754 45.5566 30.7754C45.7572 30.7754 46.0365 30.6178 46.3945 30.3027C46.7526 29.9733 47.1465 29.5221 47.5762 28.9492C48.0059 28.3763 48.4427 27.7031 48.8867 26.9297C49.3307 26.1562 49.7318 25.3255 50.0898 24.4375C50.0469 24.1654 49.9967 23.8359 49.9395 23.4492C49.8965 23.0482 49.875 22.7044 49.875 22.418C49.875 21.4727 49.9538 20.7135 50.1113 20.1406C50.2832 19.5677 50.4766 19.1309 50.6914 18.8301C50.9206 18.5293 51.1497 18.3359 51.3789 18.25C51.6081 18.1497 51.7799 18.0996 51.8945 18.0996C52.2812 18.0996 52.4746 18.3932 52.4746 18.9805C52.4746 19.2812 52.4316 19.6465 52.3457 20.0762C52.2741 20.5059 52.1738 20.957 52.0449 21.4297C51.9303 21.9023 51.7943 22.375 51.6367 22.8477C51.4792 23.3203 51.3145 23.7572 51.1426 24.1582C51.1426 24.6595 51.1927 25.082 51.293 25.4258C51.4076 25.7552 51.5508 26.0273 51.7227 26.2422C51.9089 26.4427 52.1165 26.5859 52.3457 26.6719C52.5749 26.7578 52.8112 26.8008 53.0547 26.8008C53.6706 26.8008 54.2936 26.3711 54.9238 25.5117C55.554 24.638 56.2344 23.2988 56.9648 21.4941L57.8027 21.709ZM61.6699 31.6992C60.9395 31.6992 60.2376 31.5703 59.5645 31.3125C58.8913 31.0547 58.2969 30.668 57.7812 30.1523C57.2799 29.6224 56.8789 28.9635 56.5781 28.1758C56.2773 27.388 56.127 26.4642 56.127 25.4043C56.127 24.1152 56.3132 22.9694 56.6855 21.9668C57.0579 20.9499 57.5306 20.0977 58.1035 19.4102C58.6908 18.7083 59.3424 18.1784 60.0586 17.8203C60.7747 17.4479 61.4766 17.2617 62.1641 17.2617C63.0521 17.2617 63.7539 17.5553 64.2695 18.1426C64.7995 18.7298 65.0645 19.4889 65.0645 20.4199C65.0645 21.222 64.9141 21.9525 64.6133 22.6113C64.3125 23.2559 63.9115 23.8145 63.4102 24.2871C62.9232 24.7454 62.3574 25.1035 61.7129 25.3613C61.0827 25.6191 60.4238 25.748 59.7363 25.748C59.4069 25.748 59.0918 25.7337 58.791 25.7051C58.5046 25.6621 58.2467 25.6191 58.0176 25.5762C58.1035 26.4642 58.2754 27.2305 58.5332 27.875C58.791 28.5195 59.1133 29.0495 59.5 29.4648C59.8867 29.8802 60.3164 30.1882 60.7891 30.3887C61.276 30.5892 61.7773 30.6895 62.293 30.6895C62.9375 30.6895 63.5319 30.5319 64.0762 30.2168C64.6204 29.9017 65.1217 29.4935 65.5801 28.9922C66.0384 28.4766 66.4538 27.8893 66.8262 27.2305C67.2129 26.5716 67.5566 25.9056 67.8574 25.2324C68.1582 24.5449 68.4232 23.8789 68.6523 23.2344C68.8958 22.5755 69.1107 21.9954 69.2969 21.4941L70.1348 21.709C69.9486 22.1816 69.7266 22.7546 69.4688 23.4277C69.2253 24.1009 68.9388 24.8099 68.6094 25.5547C68.2799 26.2852 67.8932 27.0228 67.4492 27.7676C67.0052 28.498 66.5039 29.1569 65.9453 29.7441C65.3867 30.3171 64.7493 30.7897 64.0332 31.1621C63.3314 31.5202 62.5436 31.6992 61.6699 31.6992ZM62.207 18.0996C61.6771 18.0996 61.1543 18.2715 60.6387 18.6152C60.1374 18.9447 59.6862 19.403 59.2852 19.9902C58.8841 20.5775 58.5547 21.2721 58.2969 22.0742C58.0534 22.8763 57.9316 23.7357 57.9316 24.6523C58.1178 24.724 58.3757 24.7884 58.7051 24.8457C59.0488 24.8887 59.4642 24.9102 59.9512 24.9102C60.4668 24.9102 60.9753 24.8027 61.4766 24.5879C61.9922 24.3587 62.4505 24.0508 62.8516 23.6641C63.2669 23.263 63.5964 22.7904 63.8398 22.2461C64.0977 21.7018 64.2266 21.1074 64.2266 20.4629C64.2266 20.1478 64.1836 19.847 64.0977 19.5605C64.0117 19.2741 63.8828 19.0234 63.7109 18.8086C63.5391 18.5938 63.3242 18.4219 63.0664 18.293C62.8229 18.1641 62.5365 18.0996 62.207 18.0996ZM74.4746 13.9102C74.6895 14.0391 74.9473 14.1895 75.248 14.3613C75.5488 14.5332 75.8997 14.6979 76.3008 14.8555C76.7018 15.013 77.1458 15.1634 77.6328 15.3066C78.1341 15.4355 78.6784 15.5286 79.2656 15.5859C79.4661 14.2969 79.724 13.1367 80.0391 12.1055C80.3542 11.0599 80.6979 10.1719 81.0703 9.44141C81.457 8.69661 81.8509 8.13086 82.252 7.74414C82.6673 7.3431 83.0684 7.14258 83.4551 7.14258C83.8991 7.14258 84.2142 7.31445 84.4004 7.6582C84.5866 8.00195 84.6797 8.46029 84.6797 9.0332C84.6797 9.44857 84.6367 9.9069 84.5508 10.4082C84.4648 10.9095 84.3503 11.4466 84.207 12.0195C84.0638 12.5781 83.8919 13.1654 83.6914 13.7812C83.4909 14.3828 83.2832 14.9844 83.0684 15.5859C84.5007 15.457 85.8184 15.2207 87.0215 14.877C88.2389 14.5332 89.2917 14.1823 90.1797 13.8242L90.5879 14.6191C89.4134 15.0632 88.196 15.4642 86.9355 15.8223C85.6751 16.166 84.2643 16.3809 82.7031 16.4668C82.3451 17.3978 81.9727 18.2858 81.5859 19.1309C81.2135 19.9616 80.8698 20.6849 80.5547 21.3008C80.569 22.1029 80.612 22.9766 80.6836 23.9219C80.7695 24.8529 80.9271 25.7266 81.1562 26.543C81.3997 27.3594 81.7363 28.0397 82.166 28.584C82.61 29.1283 83.1901 29.4004 83.9062 29.4004C84.5078 29.4004 85.0592 29.1497 85.5605 28.6484C86.0618 28.1328 86.5202 27.4883 86.9355 26.7148C87.3652 25.9271 87.7591 25.0677 88.1172 24.1367C88.4753 23.2057 88.8118 22.3249 89.127 21.4941L89.9648 21.709C89.7643 22.2246 89.5495 22.8047 89.3203 23.4492C89.0911 24.0938 88.8333 24.7526 88.5469 25.4258C88.2604 26.0846 87.9453 26.7292 87.6016 27.3594C87.2578 27.9753 86.8783 28.5339 86.4629 29.0352C86.0475 29.5221 85.5892 29.916 85.0879 30.2168C84.5866 30.5033 84.0423 30.6465 83.4551 30.6465C82.8249 30.6465 82.2305 30.5033 81.6719 30.2168C81.1276 29.9303 80.6478 29.4219 80.2324 28.6914C79.8314 27.9466 79.5091 26.944 79.2656 25.6836C79.0365 24.4089 78.9219 22.7904 78.9219 20.8281C78.9219 19.2526 79.0078 17.7845 79.1797 16.4238C77.9479 16.2663 76.9167 16.0228 76.0859 15.6934C75.2409 15.3496 74.5892 15.0202 74.1309 14.7051L74.4746 13.9102ZM83.584 8.28125C83.4551 8.28125 83.2617 8.41016 83.0039 8.66797C82.7461 8.92578 82.474 9.34831 82.1875 9.93555C81.901 10.5085 81.6217 11.2676 81.3496 12.2129C81.0918 13.1439 80.8841 14.2969 80.7266 15.6719H81.1348H82.1875C82.4453 14.9557 82.6673 14.2611 82.8535 13.5879C83.054 12.9147 83.2259 12.2917 83.3691 11.7188C83.5124 11.1315 83.6198 10.6087 83.6914 10.1504C83.763 9.67773 83.7988 9.29102 83.7988 8.99023C83.7988 8.51758 83.7272 8.28125 83.584 8.28125ZM80.5547 19.582C80.7982 19.0807 81.0273 18.5794 81.2422 18.0781C81.457 17.5625 81.6647 17.0397 81.8652 16.5098H81.0703H80.6406C80.612 16.9681 80.5905 17.4551 80.5762 17.9707C80.5618 18.472 80.5547 18.9948 80.5547 19.5391V19.582ZM96.2812 7.76562C96.2812 8.66797 96.1237 9.67773 95.8086 10.7949C95.5078 11.9121 95.0924 13.1296 94.5625 14.4473C94.0326 15.765 93.4095 17.1829 92.6934 18.7012C91.9915 20.2051 91.2396 21.7949 90.4375 23.4707C90.3659 24.1582 90.3014 24.8529 90.2441 25.5547C90.2012 26.2422 90.1582 26.9368 90.1152 27.6387C90.3014 27.166 90.5306 26.6217 90.8027 26.0059C91.0892 25.3757 91.4043 24.7311 91.748 24.0723C92.1061 23.3991 92.4928 22.7402 92.9082 22.0957C93.3236 21.4512 93.7604 20.8783 94.2188 20.377C94.6914 19.8613 95.1855 19.446 95.7012 19.1309C96.2311 18.8158 96.7754 18.6582 97.334 18.6582C97.7207 18.6582 98.0716 18.7298 98.3867 18.873C98.7018 19.0163 98.9668 19.2168 99.1816 19.4746C99.4108 19.7324 99.5827 20.0332 99.6973 20.377C99.8262 20.7207 99.8906 21.0931 99.8906 21.4941C99.8906 22.0098 99.819 22.5684 99.6758 23.1699C99.5469 23.7572 99.3965 24.3587 99.2246 24.9746C99.0527 25.5905 98.8952 26.2064 98.752 26.8223C98.623 27.4382 98.5586 28.0182 98.5586 28.5625C98.5586 29.0065 98.666 29.3861 98.8809 29.7012C99.0957 30.002 99.4896 30.1523 100.062 30.1523C100.464 30.1523 100.857 29.9876 101.244 29.6582C101.631 29.3288 102.003 28.9062 102.361 28.3906C102.719 27.8607 103.049 27.2734 103.35 26.6289C103.665 25.9701 103.951 25.3184 104.209 24.6738C104.481 24.0293 104.717 23.4277 104.918 22.8691C105.133 22.2962 105.305 21.8379 105.434 21.4941L106.271 21.709C106.028 22.3535 105.777 23.0339 105.52 23.75C105.262 24.4661 104.982 25.1823 104.682 25.8984C104.395 26.6003 104.08 27.2734 103.736 27.918C103.393 28.5625 103.013 29.1354 102.598 29.6367C102.197 30.1237 101.753 30.5176 101.266 30.8184C100.779 31.1048 100.234 31.248 99.6328 31.248C99.0885 31.248 98.6374 31.1693 98.2793 31.0117C97.9212 30.8542 97.6348 30.6393 97.4199 30.3672C97.2194 30.0951 97.0762 29.7728 96.9902 29.4004C96.9043 29.0137 96.8613 28.5911 96.8613 28.1328C96.8613 27.6458 96.9329 27.0944 97.0762 26.4785C97.2194 25.8483 97.377 25.2038 97.5488 24.5449C97.735 23.8717 97.8997 23.2057 98.043 22.5469C98.1862 21.8737 98.2578 21.2578 98.2578 20.6992C98.2578 20.3841 98.179 20.1048 98.0215 19.8613C97.8783 19.6178 97.6204 19.4961 97.248 19.4961C96.6608 19.4961 96.0951 19.7109 95.5508 20.1406C95.0065 20.556 94.4909 21.1003 94.0039 21.7734C93.5169 22.4466 93.0586 23.2057 92.6289 24.0508C92.1992 24.8958 91.8053 25.7409 91.4473 26.5859C91.0892 27.4167 90.7669 28.2116 90.4805 28.9707C90.2083 29.7298 89.972 30.36 89.7715 30.8613L88.9336 30.7324C88.9336 30.6608 88.9264 30.5677 88.9121 30.4531C88.9121 30.3242 88.9121 30.1523 88.9121 29.9375C88.9121 29.7227 88.9049 29.4577 88.8906 29.1426C88.8906 28.8132 88.8906 28.4193 88.8906 27.9609C88.8906 26.6146 88.9264 24.8385 88.998 22.6328C89.0697 20.4271 89.2415 17.7845 89.5137 14.7051C89.6283 13.2012 89.8001 11.9193 90.0293 10.8594C90.2585 9.78516 90.5163 8.88997 90.8027 8.17383C91.0892 7.44336 91.39 6.86328 91.7051 6.43359C92.0345 6.00391 92.3496 5.68164 92.6504 5.4668C92.9512 5.23763 93.2305 5.0944 93.4883 5.03711C93.7461 4.96549 93.9609 4.92969 94.1328 4.92969C94.7917 4.92969 95.3145 5.1875 95.7012 5.70312C96.0879 6.21875 96.2812 6.90625 96.2812 7.76562ZM94.1758 5.81055C93.8034 5.81055 93.4668 5.99674 93.166 6.36914C92.8796 6.72721 92.6146 7.24284 92.3711 7.91602C92.1419 8.57487 91.9414 9.36979 91.7695 10.3008C91.5977 11.2318 91.4401 12.2702 91.2969 13.416C91.1536 14.5475 91.0247 15.7721 90.9102 17.0898C90.8099 18.3932 90.7096 19.7539 90.6094 21.1719C91.2826 19.8828 91.9056 18.6081 92.4785 17.3477C93.0658 16.0729 93.5742 14.8555 94.0039 13.6953C94.4336 12.5352 94.7702 11.4538 95.0137 10.4512C95.2715 9.43424 95.4004 8.53906 95.4004 7.76562C95.4004 7.53646 95.3789 7.30729 95.3359 7.07812C95.3073 6.83464 95.2428 6.61979 95.1426 6.43359C95.0566 6.2474 94.9349 6.09701 94.7773 5.98242C94.6198 5.86784 94.4193 5.81055 94.1758 5.81055ZM110.139 31.6992C109.408 31.6992 108.706 31.5703 108.033 31.3125C107.36 31.0547 106.766 30.668 106.25 30.1523C105.749 29.6224 105.348 28.9635 105.047 28.1758C104.746 27.388 104.596 26.4642 104.596 25.4043C104.596 24.1152 104.782 22.9694 105.154 21.9668C105.527 20.9499 105.999 20.0977 106.572 19.4102C107.16 18.7083 107.811 18.1784 108.527 17.8203C109.243 17.4479 109.945 17.2617 110.633 17.2617C111.521 17.2617 112.223 17.5553 112.738 18.1426C113.268 18.7298 113.533 19.4889 113.533 20.4199C113.533 21.222 113.383 21.9525 113.082 22.6113C112.781 23.2559 112.38 23.8145 111.879 24.2871C111.392 24.7454 110.826 25.1035 110.182 25.3613C109.551 25.6191 108.893 25.748 108.205 25.748C107.876 25.748 107.561 25.7337 107.26 25.7051C106.973 25.6621 106.715 25.6191 106.486 25.5762C106.572 26.4642 106.744 27.2305 107.002 27.875C107.26 28.5195 107.582 29.0495 107.969 29.4648C108.355 29.8802 108.785 30.1882 109.258 30.3887C109.745 30.5892 110.246 30.6895 110.762 30.6895C111.406 30.6895 112.001 30.5319 112.545 30.2168C113.089 29.9017 113.59 29.4935 114.049 28.9922C114.507 28.4766 114.923 27.8893 115.295 27.2305C115.682 26.5716 116.025 25.9056 116.326 25.2324C116.627 24.5449 116.892 23.8789 117.121 23.2344C117.365 22.5755 117.579 21.9954 117.766 21.4941L118.604 21.709C118.417 22.1816 118.195 22.7546 117.938 23.4277C117.694 24.1009 117.408 24.8099 117.078 25.5547C116.749 26.2852 116.362 27.0228 115.918 27.7676C115.474 28.498 114.973 29.1569 114.414 29.7441C113.855 30.3171 113.218 30.7897 112.502 31.1621C111.8 31.5202 111.012 31.6992 110.139 31.6992ZM110.676 18.0996C110.146 18.0996 109.623 18.2715 109.107 18.6152C108.606 18.9447 108.155 19.403 107.754 19.9902C107.353 20.5775 107.023 21.2721 106.766 22.0742C106.522 22.8763 106.4 23.7357 106.4 24.6523C106.587 24.724 106.844 24.7884 107.174 24.8457C107.518 24.8887 107.933 24.9102 108.42 24.9102C108.936 24.9102 109.444 24.8027 109.945 24.5879C110.461 24.3587 110.919 24.0508 111.32 23.6641C111.736 23.263 112.065 22.7904 112.309 22.2461C112.566 21.7018 112.695 21.1074 112.695 20.4629C112.695 20.1478 112.652 19.847 112.566 19.5605C112.48 19.2741 112.352 19.0234 112.18 18.8086C112.008 18.5938 111.793 18.4219 111.535 18.293C111.292 18.1641 111.005 18.0996 110.676 18.0996ZM134.223 34.1055C133.12 34.1055 132.11 33.9694 131.193 33.6973C130.277 33.4251 129.489 33.0312 128.83 32.5156C128.186 32 127.677 31.3698 127.305 30.625C126.947 29.8802 126.768 29.0352 126.768 28.0898C126.768 27.1159 126.99 26.1276 127.434 25.125C127.892 24.1081 128.551 23.1699 129.41 22.3105L129.818 22.7188C129.374 23.2917 129.002 23.9792 128.701 24.7812C128.415 25.5833 128.271 26.4355 128.271 27.3379C128.271 28.0684 128.379 28.7917 128.594 29.5078C128.823 30.2096 129.174 30.8398 129.646 31.3984C130.119 31.957 130.728 32.4082 131.473 32.752C132.232 33.0957 133.148 33.2676 134.223 33.2676C134.309 33.2676 134.395 33.2604 134.48 33.2461C134.566 33.2318 134.652 33.2246 134.738 33.2246C134.294 31.8783 133.893 30.2311 133.535 28.2832C133.191 26.3353 133.02 24.0723 133.02 21.4941C133.02 19.0879 133.163 16.9681 133.449 15.1348C133.736 13.3014 134.072 11.7188 134.459 10.3867C134.846 9.05469 135.24 7.95898 135.641 7.09961C136.056 6.22591 136.385 5.55273 136.629 5.08008L137.252 5.20898C137.123 5.82487 136.958 6.66992 136.758 7.74414C136.557 8.80404 136.357 10.1146 136.156 11.6758C135.97 13.2227 135.805 15.0345 135.662 17.1113C135.519 19.1882 135.447 21.5371 135.447 24.1582C135.447 25.6335 135.49 27.123 135.576 28.627C135.662 30.1165 135.791 31.6204 135.963 33.1387C137.696 32.9525 139.314 32.5156 140.818 31.8281C142.322 31.1406 143.69 30.2741 144.922 29.2285C146.168 28.1829 147.271 26.9941 148.23 25.6621C149.19 24.3301 149.999 22.9264 150.658 21.4512C151.331 19.9759 151.84 18.4648 152.184 16.918C152.527 15.3711 152.699 13.86 152.699 12.3848C152.699 10.4368 152.398 8.76823 151.797 7.37891C151.195 5.98958 150.415 4.85807 149.455 3.98438C148.495 3.09635 147.407 2.45182 146.189 2.05078C144.986 1.63542 143.783 1.42773 142.58 1.42773C141.391 1.42773 140.288 1.50651 139.271 1.66406C138.255 1.82161 137.316 2.0293 136.457 2.28711C135.612 2.54492 134.839 2.83854 134.137 3.16797C133.449 3.48307 132.833 3.8125 132.289 4.15625C131 4.95833 129.94 5.86784 129.109 6.88477L128.4 6.39062C128.415 6.36198 128.544 6.19727 128.787 5.89648C129.045 5.5957 129.424 5.23047 129.926 4.80078C130.427 4.37109 131.057 3.91276 131.816 3.42578C132.59 2.9388 133.492 2.48763 134.523 2.07227C135.569 1.64258 136.758 1.29167 138.09 1.01953C139.436 0.733073 140.933 0.589844 142.58 0.589844C144.557 0.589844 146.326 0.847656 147.887 1.36328C149.448 1.87891 150.766 2.64518 151.84 3.66211C152.928 4.66471 153.759 5.91081 154.332 7.40039C154.905 8.87565 155.191 10.5801 155.191 12.5137C155.191 14.7767 154.898 16.8607 154.311 18.7656C153.723 20.6562 152.936 22.375 151.947 23.9219C150.959 25.4544 149.82 26.8079 148.531 27.9824C147.242 29.1569 145.889 30.1667 144.471 31.0117C143.053 31.8424 141.62 32.5013 140.174 32.9883C138.727 33.4896 137.359 33.819 136.07 33.9766C136.113 34.2487 136.156 34.5065 136.199 34.75C136.242 34.9935 136.285 35.2513 136.328 35.5234L135.619 35.6094C135.533 35.3802 135.433 35.1367 135.318 34.8789C135.218 34.6211 135.111 34.349 134.996 34.0625C134.867 34.0911 134.738 34.1055 134.609 34.1055C134.48 34.1055 134.352 34.1055 134.223 34.1055ZM174.871 21.709C174.284 23.2988 173.747 24.6309 173.26 25.7051C172.787 26.7793 172.322 27.6458 171.863 28.3047C171.419 28.9635 170.975 29.4362 170.531 29.7227C170.087 30.0091 169.6 30.1523 169.07 30.1523C168.426 30.1523 167.874 29.9303 167.416 29.4863C166.958 29.028 166.671 28.3262 166.557 27.3809C166.098 28.3691 165.504 29.1784 164.773 29.8086C164.043 30.4245 163.126 30.7324 162.023 30.7324C161.436 30.7324 160.87 30.625 160.326 30.4102C159.796 30.1953 159.324 29.8659 158.908 29.4219C158.493 28.9635 158.156 28.3906 157.898 27.7031C157.655 27.0156 157.533 26.2064 157.533 25.2754C157.533 24.3301 157.648 23.4421 157.877 22.6113C158.12 21.7806 158.436 21.0215 158.822 20.334C159.209 19.6322 159.653 19.0091 160.154 18.4648C160.67 17.9206 161.2 17.4622 161.744 17.0898C162.288 16.7174 162.833 16.431 163.377 16.2305C163.921 16.0299 164.423 15.9297 164.881 15.9297C165.282 15.9297 165.669 15.9798 166.041 16.0801C166.413 16.1803 166.743 16.3451 167.029 16.5742C167.33 16.7891 167.566 17.0827 167.738 17.4551C167.924 17.8275 168.018 18.293 168.018 18.8516C168.018 19.5104 167.889 20.0833 167.631 20.5703C167.387 21.0573 167.087 21.4655 166.729 21.7949C166.385 22.1243 166.027 22.3893 165.654 22.5898C165.296 22.7904 165.01 22.9336 164.795 23.0195L164.537 22.1816C164.58 22.1816 164.738 22.1243 165.01 22.0098C165.296 21.8952 165.59 21.709 165.891 21.4512C166.206 21.179 166.492 20.8353 166.75 20.4199C167.008 20.0046 167.137 19.4961 167.137 18.8945C167.137 18.207 166.943 17.6842 166.557 17.3262C166.17 16.9538 165.676 16.7676 165.074 16.7676C164.616 16.7676 164.079 16.9323 163.463 17.2617C162.847 17.5911 162.253 18.1068 161.68 18.8086C161.121 19.5104 160.641 20.3984 160.24 21.4727C159.854 22.5469 159.66 23.8288 159.66 25.3184C159.66 26.7936 159.918 27.918 160.434 28.6914C160.964 29.4648 161.673 29.8516 162.561 29.8516C163.005 29.8516 163.427 29.7298 163.828 29.4863C164.243 29.2285 164.623 28.8919 164.967 28.4766C165.311 28.0612 165.618 27.5814 165.891 27.0371C166.163 26.4785 166.399 25.9056 166.6 25.3184C166.6 24.86 166.65 24.3229 166.75 23.707C166.865 23.0768 167.036 22.4395 167.266 21.7949L168.576 22.2246C168.505 22.4108 168.433 22.6543 168.361 22.9551C168.29 23.2559 168.218 23.5853 168.146 23.9434C168.089 24.3014 168.039 24.6738 167.996 25.0605C167.953 25.4329 167.932 25.7982 167.932 26.1562C167.932 27.2734 168.039 28.0469 168.254 28.4766C168.483 28.8919 168.87 29.0996 169.414 29.0996C169.729 29.0996 170.037 28.985 170.338 28.7559C170.653 28.5267 170.99 28.1257 171.348 27.5527C171.706 26.9798 172.1 26.2064 172.529 25.2324C172.959 24.2441 173.46 22.998 174.033 21.4941L174.871 21.709ZM169.521 13.9102C169.736 14.0391 169.994 14.1895 170.295 14.3613C170.596 14.5332 170.947 14.6979 171.348 14.8555C171.749 15.013 172.193 15.1634 172.68 15.3066C173.181 15.4355 173.725 15.5286 174.312 15.5859C174.513 14.2969 174.771 13.1367 175.086 12.1055C175.401 11.0599 175.745 10.1719 176.117 9.44141C176.504 8.69661 176.898 8.13086 177.299 7.74414C177.714 7.3431 178.115 7.14258 178.502 7.14258C178.946 7.14258 179.261 7.31445 179.447 7.6582C179.633 8.00195 179.727 8.46029 179.727 9.0332C179.727 9.44857 179.684 9.9069 179.598 10.4082C179.512 10.9095 179.397 11.4466 179.254 12.0195C179.111 12.5781 178.939 13.1654 178.738 13.7812C178.538 14.3828 178.33 14.9844 178.115 15.5859C179.548 15.457 180.865 15.2207 182.068 14.877C183.286 14.5332 184.339 14.1823 185.227 13.8242L185.635 14.6191C184.46 15.0632 183.243 15.4642 181.982 15.8223C180.722 16.166 179.311 16.3809 177.75 16.4668C177.392 17.3978 177.02 18.2858 176.633 19.1309C176.26 19.9616 175.917 20.6849 175.602 21.3008C175.616 22.1029 175.659 22.9766 175.73 23.9219C175.816 24.8529 175.974 25.7266 176.203 26.543C176.447 27.3594 176.783 28.0397 177.213 28.584C177.657 29.1283 178.237 29.4004 178.953 29.4004C179.555 29.4004 180.106 29.1497 180.607 28.6484C181.109 28.1328 181.567 27.4883 181.982 26.7148C182.412 25.9271 182.806 25.0677 183.164 24.1367C183.522 23.2057 183.859 22.3249 184.174 21.4941L185.012 21.709C184.811 22.2246 184.596 22.8047 184.367 23.4492C184.138 24.0938 183.88 24.7526 183.594 25.4258C183.307 26.0846 182.992 26.7292 182.648 27.3594C182.305 27.9753 181.925 28.5339 181.51 29.0352C181.094 29.5221 180.636 29.916 180.135 30.2168C179.633 30.5033 179.089 30.6465 178.502 30.6465C177.872 30.6465 177.277 30.5033 176.719 30.2168C176.174 29.9303 175.695 29.4219 175.279 28.6914C174.878 27.9466 174.556 26.944 174.312 25.6836C174.083 24.4089 173.969 22.7904 173.969 20.8281C173.969 19.2526 174.055 17.7845 174.227 16.4238C172.995 16.2663 171.964 16.0228 171.133 15.6934C170.288 15.3496 169.636 15.0202 169.178 14.7051L169.521 13.9102ZM178.631 8.28125C178.502 8.28125 178.309 8.41016 178.051 8.66797C177.793 8.92578 177.521 9.34831 177.234 9.93555C176.948 10.5085 176.669 11.2676 176.396 12.2129C176.139 13.1439 175.931 14.2969 175.773 15.6719H176.182H177.234C177.492 14.9557 177.714 14.2611 177.9 13.5879C178.101 12.9147 178.273 12.2917 178.416 11.7188C178.559 11.1315 178.667 10.6087 178.738 10.1504C178.81 9.67773 178.846 9.29102 178.846 8.99023C178.846 8.51758 178.774 8.28125 178.631 8.28125ZM175.602 19.582C175.845 19.0807 176.074 18.5794 176.289 18.0781C176.504 17.5625 176.712 17.0397 176.912 16.5098H176.117H175.688C175.659 16.9681 175.637 17.4551 175.623 17.9707C175.609 18.472 175.602 18.9948 175.602 19.5391V19.582ZM188.9 31.6992C188.17 31.6992 187.468 31.5703 186.795 31.3125C186.122 31.0547 185.527 30.668 185.012 30.1523C184.51 29.6224 184.109 28.9635 183.809 28.1758C183.508 27.388 183.357 26.4642 183.357 25.4043C183.357 24.1152 183.544 22.9694 183.916 21.9668C184.288 20.9499 184.761 20.0977 185.334 19.4102C185.921 18.7083 186.573 18.1784 187.289 17.8203C188.005 17.4479 188.707 17.2617 189.395 17.2617C190.283 17.2617 190.984 17.5553 191.5 18.1426C192.03 18.7298 192.295 19.4889 192.295 20.4199C192.295 21.222 192.145 21.9525 191.844 22.6113C191.543 23.2559 191.142 23.8145 190.641 24.2871C190.154 24.7454 189.588 25.1035 188.943 25.3613C188.313 25.6191 187.654 25.748 186.967 25.748C186.637 25.748 186.322 25.7337 186.021 25.7051C185.735 25.6621 185.477 25.6191 185.248 25.5762C185.334 26.4642 185.506 27.2305 185.764 27.875C186.021 28.5195 186.344 29.0495 186.73 29.4648C187.117 29.8802 187.547 30.1882 188.02 30.3887C188.507 30.5892 189.008 30.6895 189.523 30.6895C190.168 30.6895 190.762 30.5319 191.307 30.2168C191.851 29.9017 192.352 29.4935 192.811 28.9922C193.269 28.4766 193.684 27.8893 194.057 27.2305C194.443 26.5716 194.787 25.9056 195.088 25.2324C195.389 24.5449 195.654 23.8789 195.883 23.2344C196.126 22.5755 196.341 21.9954 196.527 21.4941L197.365 21.709C197.179 22.1816 196.957 22.7546 196.699 23.4277C196.456 24.1009 196.169 24.8099 195.84 25.5547C195.51 26.2852 195.124 27.0228 194.68 27.7676C194.236 28.498 193.734 29.1569 193.176 29.7441C192.617 30.3171 191.98 30.7897 191.264 31.1621C190.562 31.5202 189.774 31.6992 188.9 31.6992ZM189.438 18.0996C188.908 18.0996 188.385 18.2715 187.869 18.6152C187.368 18.9447 186.917 19.403 186.516 19.9902C186.115 20.5775 185.785 21.2721 185.527 22.0742C185.284 22.8763 185.162 23.7357 185.162 24.6523C185.348 24.724 185.606 24.7884 185.936 24.8457C186.279 24.8887 186.695 24.9102 187.182 24.9102C187.697 24.9102 188.206 24.8027 188.707 24.5879C189.223 24.3587 189.681 24.0508 190.082 23.6641C190.497 23.263 190.827 22.7904 191.07 22.2461C191.328 21.7018 191.457 21.1074 191.457 20.4629C191.457 20.1478 191.414 19.847 191.328 19.5605C191.242 19.2741 191.113 19.0234 190.941 18.8086C190.77 18.5938 190.555 18.4219 190.297 18.293C190.053 18.1641 189.767 18.0996 189.438 18.0996Z" fill="#25314F"/>
</svg>
